<svg width="46" height="151" viewBox="0 0 46 151" fill="none" xmlns="http://www.w3.org/2000/svg">
<path d="M36.1414 34.6688C39.6154 26.5198 38.9071 26.6219 38.9071 26.6219C37.7502 25.7325 37.0072 25.3186 34.1026 24.6246C31.8879 24.0951 30.0332 24.8495 27.9211 22.4883C26.7735 21.2047 26.6045 19.3147 26.5212 17.1308C26.4508 15.2909 24.2848 15.6098 23.3108 15.5079V15.4837L23.0205 15.4825H23.0066H22.993L22.7028 15.4837V15.5079C21.7287 15.6098 19.5628 15.2909 19.4923 17.1308C19.409 19.3147 19.2401 21.2047 18.0921 22.4883C15.9805 24.8495 14.1256 24.0951 11.9109 24.6246C9.00621 25.3186 8.26319 25.7325 7.10636 26.6219C7.10636 26.6219 6.39777 26.5198 9.87193 34.6688C10.0686 35.1306 10.8469 40.3456 12.2149 45.5444C13.5263 50.5282 13.2043 56.0733 13.2678 59.0201C13.3225 61.5589 12.9439 61.5923 12.5474 62.9798C11.7268 65.8509 10.4864 67.4097 10.214 72.3315C10.1569 73.3606 12.7542 70.5353 15.7444 71.9136C17.8791 72.8972 19.8309 78.6207 22.7028 79.0022C22.7057 79.0029 22.7084 79.0029 22.7114 79.0036C22.8087 79.0157 22.907 79.0235 23.0066 79.0231C23.1064 79.0235 23.2048 79.0157 23.3021 79.0036C23.3052 79.0029 23.3077 79.0036 23.3108 79.0029C26.1827 78.6214 28.1342 72.8972 30.2691 71.9136C33.2592 70.5353 35.8564 73.3606 35.7995 72.3315C35.5269 67.4097 34.2867 65.8509 33.4661 62.9798C33.0694 61.5923 32.691 61.5589 32.7456 59.0201C32.8092 56.0733 32.4871 50.5282 33.7986 45.5444C35.1666 40.3456 35.945 35.1306 36.1414 34.6688Z" fill="#D9D9D9"/>
<path d="M35.7984 72.3315C35.8025 72.3072 35.3573 68.1438 34.374 65.587C33.8575 65.037 33.0411 62.2896 29.5415 63.1633C24.728 64.3652 24.6908 69.1441 24.3377 71.9472C24.1628 73.3342 24.0503 75.7969 24.0342 78.7879C24.0046 84.28 24.3024 91.5574 25.1479 97.2663C25.3351 98.5327 25.1256 99.7917 25.0805 100.971C24.9271 104.993 25.7873 106.685 25.6433 109.051C25.4678 111.928 24.514 114.455 24.7241 119.906C24.9946 126.92 26.8017 135.007 26.5524 139.706C26.4946 140.806 26.3609 141.987 26.1724 144.212C25.9883 146.373 25.2147 148.414 25.2348 149.185C25.2897 151.402 27.5729 150.554 28.4758 150.486C29.5727 150.402 33.6273 149.871 33.3142 148.157C33.1097 147.039 31.7303 145.96 31.5032 144.056C31.3768 142.998 30.4026 140.73 30.4081 140.155C30.5043 129.786 32.6451 124.338 32.835 118.334C32.9711 114.028 32.7513 111.549 32.4969 108.952C32.2407 106.354 33.3106 101.372 33.7975 98.0516C35.3188 87.6741 36.5774 81.8675 35.7984 72.3315Z" fill="#D9D9D9"/>
<path d="M21.9774 78.7879C21.9613 75.7969 21.8488 73.3342 21.674 71.9472C21.3206 69.1441 21.2833 64.3652 16.47 63.1633C12.9707 62.2896 12.154 65.037 11.6379 65.587C10.6542 68.1438 10.209 72.3072 10.2133 72.3315C9.43423 81.8675 10.6926 87.6741 12.2141 98.0516C12.701 101.372 13.7709 106.354 13.5147 108.952C13.2603 111.549 13.0405 114.028 13.1766 118.334C13.3665 124.338 15.5074 129.786 15.6035 140.155C15.6088 140.73 14.6348 142.998 14.5083 144.056C14.2813 145.96 12.9021 147.039 12.6974 148.157C12.3842 149.871 16.4389 150.402 17.5357 150.486C18.4386 150.554 20.7218 151.402 20.7767 149.185C20.797 148.414 20.0233 146.373 19.8392 144.212C19.6507 141.987 19.5168 140.806 19.4593 139.706C19.2098 135.007 21.0169 126.92 21.2873 119.906C21.4975 114.455 20.5436 111.928 20.3683 109.051C20.2244 106.685 21.0843 104.993 20.9312 100.971C20.886 99.7917 20.6765 98.5327 20.8638 97.2663C21.7093 91.5574 22.007 84.28 21.9774 78.7879Z" fill="#D9D9D9"/>
<path d="M42.3516 60.8353C41.8399 60.9419 39.6403 59.7956 39.6249 55.9032C39.6175 53.9592 36.6865 47.2527 35.2398 36.951C34.9973 35.2229 33.4418 32.878 33.3425 32.3132C32.6584 28.4275 34.0455 25.431 34.1025 24.6246C39.4838 25.2122 40.9929 28.2754 41.1959 33.1807C41.3277 36.376 42.6797 39.0933 43.4758 42.8898C44.1896 46.2939 44.6847 52.1772 44.6598 55.9534C44.6535 56.9146 44.6661 60.3525 42.3516 60.8353Z" fill="#D9D9D9"/>
<path d="M45.001 73.7455C45.0111 72.4501 44.136 71.7211 43.4128 71.72C42.6582 71.7188 42.6119 72.5493 41.9166 73.7455C41.4599 75.1179 40.1228 75.4312 39.3633 79.472C39.159 80.5577 38.9313 81.607 38.8136 82.5654C38.8006 82.6583 39.6143 82.9557 39.9631 81.9327C40.809 79.4649 41.1183 79.8407 41.6283 78.9938C41.5353 80.0998 41.8962 81.175 40.7318 83.7484C39.9959 85.3748 39.0236 86.2637 39.6758 86.9662C40.3284 87.6674 43.4762 85.6177 45.1197 80.9934C45.7994 79.081 45.416 75.6731 45.001 73.7455Z" fill="#D9D9D9"/>
<path d="M41.916 73.7455C42.1766 75.2737 42.7288 74.9551 43.3466 74.9739C43.9645 74.9921 44.8764 74.8972 45.0004 73.7455C45.0777 73.024 45.2219 71.8368 45.2998 70.9498C46.2011 60.6135 45.4935 55.7266 43.9632 52.5969C43.4828 51.6147 42.7466 50.6279 41.4487 51.1633C39.5373 51.9506 39.5986 54.7694 39.6248 55.9032C39.7726 62.2478 41.0437 67.8186 41.6545 71.9202C41.7526 72.5794 41.916 73.7455 41.916 73.7455Z" fill="#D9D9D9"/>
<path d="M3.66265 60.8353C4.17444 60.9419 6.37404 59.7956 6.38919 55.9032C6.39682 53.9592 9.32769 47.2527 10.7745 36.951C11.0171 35.2229 12.5723 32.878 12.6717 32.3132C13.3557 28.4275 11.9688 25.431 11.9118 24.6246C6.53034 25.2122 5.02124 28.2754 4.81856 33.1807C4.68651 36.376 3.33435 39.0933 2.53861 42.8898C1.82488 46.2939 1.32953 52.1772 1.35441 55.9534C1.36066 56.9146 1.34826 60.3525 3.66265 60.8353Z" fill="#D9D9D9"/>
<path d="M1.01273 73.7455C1.00263 72.4501 1.87771 71.7211 2.60081 71.72C3.35541 71.7188 3.4016 72.5493 4.09724 73.7455C4.55338 75.1179 5.89066 75.4312 6.65049 79.472C6.85473 80.5577 7.08238 81.607 7.19984 82.5654C7.21306 82.6583 6.39923 82.9557 6.05036 81.9327C5.20466 79.4649 4.89536 79.8407 4.38532 78.9938C4.47826 80.0998 4.11753 81.175 5.2818 83.7484C6.01776 85.3748 6.99 86.2637 6.33789 86.9662C5.68523 87.6674 2.53735 85.6177 0.893712 80.9934C0.214235 79.081 0.597548 75.6731 1.01273 73.7455Z" fill="#D9D9D9"/>
<path d="M4.0974 73.7455C3.83668 75.2737 3.28439 74.9551 2.66663 74.9739C2.04886 74.9921 1.13705 74.8972 1.01289 73.7455C0.935657 73.024 0.791019 71.8368 0.713603 70.9498C-0.187928 60.6135 0.519651 55.7266 2.05006 52.5969C2.53035 51.6147 3.2664 50.6279 4.56428 51.1633C6.47552 51.9506 6.41473 54.7694 6.38828 55.9032C6.2408 62.2478 4.96945 67.8186 4.35866 71.9202C4.26049 72.5794 4.0974 73.7455 4.0974 73.7455Z" fill="#D9D9D9"/>
<path d="M30.7603 6.77597C30.6668 6.22267 30.8147 5.73127 30.6387 5.19256C30.5059 4.78497 30.0999 4.46387 29.8895 4.11497C29.6266 3.67867 29.5419 3.32387 29.2464 2.90357C28.9202 2.44077 28.4987 2.36407 28.0558 2.09407C27.4397 1.71787 27.1858 1.32857 26.4991 1.16867C25.3212 0.893865 24.2471 0.672065 23.0069 0.704665C21.7669 0.672065 20.6927 0.893865 19.5151 1.16867C18.8281 1.32857 18.5744 1.71787 17.9583 2.09407C17.5154 2.36407 17.0937 2.44077 16.7675 2.90357C16.4722 3.32387 16.3875 3.67867 16.1246 4.11497C15.9141 4.46387 15.5081 4.78497 15.3752 5.19256C15.1994 5.73127 15.3471 6.22267 15.2536 6.77597C15.1653 7.29647 15.2574 7.81337 15.3069 8.35537C15.3565 8.89037 15.6407 9.34927 15.5562 9.93027C15.4732 10.506 15.6142 11.1116 15.8782 11.6563C16.2332 12.3885 15.9439 12.7192 16.1885 13.4918C16.4747 14.3979 16.8755 15.2822 17.4568 16.0437C18.1094 16.8986 18.6746 17.6006 19.7371 17.8736L23.0069 18.0341L26.2769 17.8736C27.3394 17.6006 27.9046 16.8986 28.5573 16.0437C29.1385 15.2822 29.5394 14.3979 29.8254 13.4918C30.0702 12.7192 29.7809 12.3885 30.1358 11.6563C30.4 11.1116 30.5408 10.506 30.4577 9.93027C30.3733 9.34927 30.6575 8.89037 30.7068 8.35537C30.7568 7.81337 30.8486 7.29647 30.7603 6.77597Z" fill="#898989"/>
<path d="M26.5207 17.1308C26.512 16.9061 26.4713 16.7145 26.4061 16.5494C26.0857 16.7728 25.7208 17.028 25.2949 17.3493C24.7209 17.7821 23.5873 18.1758 23.0908 18.2152V18.2057C23.0636 18.2123 23.0391 18.2159 23.0149 18.219C23.0122 18.2187 23.0093 18.2179 23.0062 18.2175C23.0035 18.2179 23.0006 18.2187 22.9977 18.219C22.9733 18.2159 22.949 18.2123 22.9216 18.2057V18.2152C22.4253 18.1758 21.2915 17.7821 20.7176 17.3493C20.2918 17.028 19.9267 16.7728 19.6066 16.5494C19.5413 16.7145 19.5005 16.9061 19.4919 17.1308C19.4604 17.9585 19.4162 18.7434 19.3115 19.4698C20.1319 21.0373 21.4534 22.6122 23.0062 22.6122C24.5592 22.6122 25.8807 21.0373 26.7011 19.4698C26.5963 18.7434 26.5521 17.9585 26.5207 17.1308Z" fill="#C7C7C7"/>
<path d="M28.6434 7.64156C28.4151 6.78506 28.2494 6.43966 27.8701 6.23846C27.1428 5.85266 25.7634 6.41086 23.0067 6.34626C20.2503 6.41086 18.8709 5.85266 18.1436 6.23846C17.7644 6.43966 17.5985 6.78506 17.3703 7.64156C17.1507 8.46556 16.8086 10.401 16.9264 11.033C17.3729 13.4286 17.1255 16.0437 18.0333 17.499C18.4762 18.2089 20.4032 20.2887 20.7623 20.5878C21.3239 21.0553 22.0284 21.3613 22.9693 21.3613C22.9817 21.3613 22.9955 21.3631 23.0067 21.3631C23.0182 21.3631 23.0321 21.3613 23.0443 21.3613C23.985 21.3613 24.6898 21.0553 25.2513 20.5878C25.6104 20.2887 27.5374 18.2089 27.9803 17.499C28.888 16.0437 28.6408 13.4286 29.0873 11.033C29.2052 10.401 28.8629 8.46556 28.6434 7.64156Z" fill="#D9D9D9"/>
<path d="M17.1983 11.6807C17.1983 11.6807 16.6734 10.7762 16.4867 11.5196C16.1424 12.8932 17.3668 14.4168 17.4205 14.6901C17.4732 14.9635 17.1983 11.6807 17.1983 11.6807Z" fill="#D9D9D9"/>
<path d="M28.8159 11.6807C28.8159 11.6807 29.341 10.7762 29.5278 11.5196C29.8718 12.8932 28.6472 14.4168 28.5936 14.6901C28.5412 14.9635 28.8159 11.6807 28.8159 11.6807Z" fill="#D9D9D9"/>
<path d="M35.0087 40.3296C34.6342 39.0914 34.3723 37.3701 34.3049 35.2067C34.21 32.1549 34.8569 27.3624 35.0936 24.8729C35.0441 24.8597 34.9889 24.8462 34.9376 24.8328C34.9238 24.8869 34.9156 24.9199 34.916 24.9192C34.9238 24.8891 34.9293 24.8618 34.9367 24.8326C34.6784 24.7656 34.4044 24.6969 34.1022 24.6247C33.2594 24.4231 32.5204 24.4193 31.8114 24.3619C30.7701 28.0119 28.2597 34.1829 23.1696 34.3183V34.3168C23.1488 34.3178 23.1282 34.319 23.1075 34.3203C23.093 34.3211 23.0782 34.3214 23.0636 34.322C23.0443 34.3223 23.0252 34.3241 23.0062 34.3244C22.9874 34.3241 22.9683 34.3223 22.949 34.322C22.9345 34.3214 22.9196 34.3205 22.9051 34.3197C22.8842 34.3184 22.8638 34.3178 22.8431 34.3168V34.3183C17.7528 34.1829 15.2425 28.0119 14.2013 24.3619C13.4923 24.4193 12.7532 24.4231 11.9105 24.6247C11.6082 24.6969 11.3342 24.7656 11.076 24.8326C11.0832 24.8618 11.0888 24.8891 11.0967 24.9192C11.0969 24.9199 11.0886 24.8869 11.075 24.8328C11.0237 24.8462 10.9684 24.8597 10.9189 24.8729C11.1558 27.3624 11.8027 32.1549 11.7077 35.2067C11.6403 37.3701 11.3784 39.0914 11.0038 40.3296C11.3367 41.9373 11.7399 43.7418 12.2144 45.5445C13.5258 50.5283 13.2039 56.0734 13.2674 59.0202C13.322 61.559 12.9435 61.5924 12.547 62.9799C12.1137 64.4958 11.5635 65.6461 11.1004 67.1184H23.0062H34.9121C34.4488 65.6461 33.8991 64.4958 33.4657 62.9799C33.0689 61.5924 32.6906 61.559 32.7451 59.0202C32.8088 56.0734 32.4866 50.5283 33.7982 45.5445C34.2726 43.7418 34.6758 41.9373 35.0087 40.3296Z" fill="#D9D9D9"/>
<path d="M35.799 72.3316C35.609 68.9001 34.9487 67.1034 34.2878 65.3569C32.5501 65.7341 28.9549 66.2625 23.0824 66.264V66.2623C23.0574 66.2627 23.0317 66.263 23.0061 66.2635C22.9807 66.263 22.9553 66.2627 22.9302 66.2623V66.264C17.0578 66.2625 13.4626 65.7341 11.7245 65.3569C11.0639 67.1034 10.4035 68.9001 10.2135 72.3316C9.95693 75.4703 9.9225 78.2043 10.0443 80.8313C10.9655 81.1873 12.5349 81.6556 14.6843 81.7932C19.8519 82.1239 21.973 80.8424 21.9735 80.8424C21.9735 80.8421 21.9735 80.8428 21.9735 80.8424V80.8205C21.9766 80.4713 21.9783 80.1268 21.9792 79.788C21.9798 79.4492 21.9792 79.1147 21.9777 78.788C22.0629 78.8267 22.1498 78.8553 22.2367 78.8856C22.3895 78.9378 22.5439 78.9815 22.7023 79.0023C22.7052 79.003 22.7079 79.003 22.7109 79.0037C22.8082 79.0158 22.9065 79.0236 23.0061 79.0232C23.1059 79.0236 23.2043 79.0158 23.3017 79.0037C23.3047 79.003 23.3073 79.0037 23.3103 79.003C23.4684 78.9822 23.6232 78.9378 23.7757 78.8856C23.8628 78.8553 23.9497 78.8264 24.0349 78.7877C24.0332 79.1144 24.0328 79.4492 24.0333 79.788C24.0339 80.1268 24.0359 80.4713 24.039 80.8205V80.8414C24.039 80.8411 24.039 80.8418 24.039 80.8414C24.0394 80.8414 26.1608 82.1239 31.3281 81.7932C33.4776 81.6556 35.047 81.1873 35.9682 80.8313C36.0899 78.2043 36.0554 75.4703 35.799 72.3316Z" fill="#D9D9D9"/>
</svg>
