<svg width="41" height="151" viewBox="0 0 41 151" fill="none" xmlns="http://www.w3.org/2000/svg">
<path d="M32.34 34.2725C35.4163 26.1235 34.7891 26.2256 34.7891 26.2256C33.7647 25.3362 33.1067 24.9223 30.5346 24.2283C28.5735 23.6988 26.931 24.4532 25.0608 22.092C24.0445 20.8084 23.8949 18.9184 23.8211 16.7345C23.7588 14.8946 21.8407 15.2135 20.9782 15.1116V15.0874L20.7212 15.0862H20.7089H20.6968L20.4399 15.0874V15.1116C19.5772 15.2135 17.6593 14.8946 17.5969 16.7345C17.5231 18.9184 17.3735 20.8084 16.357 22.092C14.4871 24.4532 12.8445 23.6988 10.8834 24.2283C8.31121 24.9223 7.65324 25.3362 6.62884 26.2256C6.62884 26.2256 6.00137 26.1235 9.07782 34.2725C9.25201 34.7343 9.9412 39.9493 11.1526 45.1481C12.3138 50.1319 12.0287 55.677 12.085 58.6238C12.1334 61.1626 11.7982 61.196 11.447 62.5835C10.7203 65.4546 9.62193 67.0134 9.38074 71.9352C9.33016 72.9643 11.6302 70.139 14.278 71.5173C16.1683 72.5009 17.8967 78.2244 20.4399 78.6059C20.4424 78.6066 20.4448 78.6066 20.4474 78.6073C20.5336 78.6194 20.6206 78.6272 20.7089 78.6268C20.7972 78.6272 20.8844 78.6194 20.9706 78.6073C20.9732 78.6066 20.9755 78.6073 20.9782 78.6066C23.5214 78.2251 25.2495 72.5009 27.14 71.5173C29.7878 70.139 32.0877 72.9643 32.0373 71.9352C31.7959 67.0134 30.6977 65.4546 29.971 62.5835C29.6197 61.196 29.2846 61.1626 29.3329 58.6238C29.3893 55.677 29.104 50.1319 30.2654 45.1481C31.4768 39.9493 32.1661 34.7343 32.34 34.2725Z" fill="#FDD3AE"/>
<path d="M32.0364 71.9352C32.04 71.9109 31.6458 67.7475 30.775 65.1907C30.3177 64.6407 29.5947 61.8933 26.4958 62.767C22.2333 63.9689 22.2004 68.7478 21.8877 71.5509C21.7328 72.9379 21.6332 75.4006 21.619 78.3916C21.5927 83.8837 21.8564 91.1611 22.6051 96.87C22.7709 98.1364 22.5854 99.3954 22.5454 100.574C22.4096 104.597 23.1714 106.289 23.0439 108.655C22.8885 111.532 22.0438 114.059 22.2298 119.51C22.4694 126.524 24.0696 134.611 23.8488 139.309C23.7977 140.41 23.6793 141.59 23.5123 143.816C23.3493 145.977 22.6642 148.017 22.6821 148.789C22.7307 151.006 24.7526 150.158 25.5521 150.09C26.5234 150.006 30.1139 149.475 29.8366 147.761C29.6555 146.643 28.434 145.564 28.2329 143.66C28.121 142.602 27.2583 140.334 27.2632 139.759C27.3483 129.389 29.2441 123.942 29.4122 117.937C29.5328 113.631 29.3381 111.152 29.1128 108.556C28.8859 105.958 29.8334 100.976 30.2646 97.6553C31.6117 87.2778 32.7262 81.4712 32.0364 71.9352Z" fill="#FDD3AE"/>
<path d="M19.7978 78.3916C19.7835 75.4006 19.6839 72.9379 19.5291 71.5509C19.2162 68.7478 19.1832 63.9689 14.9208 62.767C11.8222 61.8933 11.0989 64.6407 10.6419 65.1907C9.77088 67.7475 9.37664 71.9109 9.38038 71.9352C8.69054 81.4712 9.80488 87.2778 11.1522 97.6553C11.5834 100.976 12.5307 105.958 12.3039 108.556C12.0786 111.152 11.884 113.631 12.0045 117.937C12.1727 123.942 14.0684 129.389 14.1536 139.759C14.1582 140.334 13.2957 142.602 13.1838 143.66C12.9827 145.564 11.7614 146.643 11.5802 147.761C11.3028 149.475 14.8934 150.006 15.8646 150.09C16.6641 150.158 18.6859 151.006 18.7345 148.789C18.7525 148.017 18.0674 145.977 17.9043 143.816C17.7375 141.59 17.6189 140.41 17.5679 139.309C17.347 134.611 18.9473 126.524 19.1867 119.51C19.3728 114.059 18.5282 111.532 18.3729 108.655C18.2455 106.289 19.007 104.597 18.8713 100.574C18.8313 99.3954 18.6458 98.1364 18.8117 96.87C19.5604 91.1611 19.824 83.8837 19.7978 78.3916Z" fill="#FDD3AE"/>
<path d="M37.8396 60.439C37.3865 60.5456 35.4387 59.3993 35.4251 55.5069C35.4185 53.5629 32.823 46.8564 31.542 36.5547C31.3272 34.8266 29.9498 32.4817 29.8618 31.9169C29.2561 28.0312 30.4843 25.0347 30.5348 24.2283C35.3002 24.8159 36.6364 27.8791 36.8162 32.7844C36.9329 35.9797 38.1301 38.697 38.8351 42.4935C39.4672 45.8976 39.9056 51.7809 39.8836 55.5571C39.878 56.5183 39.8892 59.9562 37.8396 60.439Z" fill="#FDD3AE"/>
<path d="M40.1853 73.3492C40.1942 72.0538 39.4193 71.3248 38.7788 71.3237C38.1106 71.3225 38.0696 72.153 37.4539 73.3492C37.0495 74.7216 35.8655 75.0349 35.1929 79.0757C35.012 80.1614 34.8104 81.2107 34.7062 82.1691C34.6946 82.262 35.4152 82.5594 35.7241 81.5364C36.4731 79.0686 36.747 79.4444 37.1987 78.5975C37.1163 79.7035 37.4359 80.7787 36.4047 83.3521C35.7531 84.9785 34.8921 85.8674 35.4696 86.5699C36.0476 87.2711 38.835 85.2214 40.2903 80.5971C40.8923 78.6847 40.5527 75.2768 40.1853 73.3492Z" fill="#FDD3AE"/>
<path d="M37.4546 73.3492C37.6854 74.8774 38.1744 74.5588 38.7214 74.5776C39.2686 74.5958 40.0761 74.5009 40.1859 73.3492C40.2543 72.6277 40.3821 71.4405 40.451 70.5535C41.2491 60.2172 40.6225 55.3303 39.2674 52.2006C38.842 51.2184 38.1901 50.2316 37.0408 50.767C35.3482 51.5543 35.4025 54.3731 35.4257 55.5069C35.5566 61.8515 36.6821 67.4223 37.223 71.5239C37.3099 72.1831 37.4546 73.3492 37.4546 73.3492Z" fill="#FDD3AE"/>
<path d="M3.57897 60.439C4.03217 60.5456 5.97996 59.3993 5.99338 55.5069C6.00013 53.5629 8.59548 46.8564 9.87669 36.5547C10.0915 34.8266 11.4686 32.4817 11.5567 31.9169C12.1624 28.0312 10.9343 25.0347 10.8838 24.2283C6.11837 24.8159 4.78203 27.8791 4.60255 32.7844C4.48561 35.9797 3.28825 38.697 2.5836 42.4935C1.95158 45.8976 1.51294 51.7809 1.53497 55.5571C1.5405 56.5183 1.52953 59.9562 3.57897 60.439Z" fill="#FDD3AE"/>
<path d="M1.23297 73.3492C1.22403 72.0538 1.99893 71.3248 2.63925 71.3237C3.30746 71.3225 3.34837 72.153 3.96437 73.3492C4.36829 74.7216 5.55248 75.0349 6.22533 79.0757C6.40619 80.1614 6.60778 81.2107 6.71179 82.1691C6.7235 82.262 6.00284 82.5594 5.6939 81.5364C4.94502 79.0686 4.67113 79.4444 4.21947 78.5975C4.30177 79.7035 3.98234 80.7787 5.01333 83.3521C5.66503 84.9785 6.52597 85.8674 5.94851 86.5699C5.37057 87.2711 2.58306 85.2214 1.12758 80.5971C0.525887 78.6847 0.86532 75.2768 1.23297 73.3492Z" fill="#FDD3AE"/>
<path d="M3.96425 73.3492C3.73338 74.8774 3.24432 74.5588 2.69727 74.5776C2.15023 74.5958 1.3428 74.5009 1.23285 73.3492C1.16446 72.6277 1.03638 71.4405 0.967826 70.5535C0.1695 60.2172 0.796076 55.3303 2.15129 52.2006C2.57659 51.2184 3.22838 50.2316 4.37768 50.767C6.07013 51.5543 6.0163 54.3731 5.99288 55.5069C5.86228 61.8515 4.73647 67.4223 4.19561 71.5239C4.10868 72.1831 3.96425 73.3492 3.96425 73.3492Z" fill="#FDD3AE"/>
<path d="M28.4615 6.37966C28.368 5.82636 28.5159 5.33496 28.3399 4.79626C28.2071 4.38866 27.8011 4.06756 27.5907 3.71866C27.3278 3.28236 27.2431 2.92756 26.9476 2.50726C26.6214 2.04446 26.1999 1.96776 25.757 1.69776C25.1409 1.32156 24.887 0.932264 24.2003 0.772364C23.0224 0.497564 21.9483 0.275764 20.7081 0.308364C19.4681 0.275764 18.3939 0.497564 17.2163 0.772364C16.5293 0.932264 16.2756 1.32156 15.6595 1.69776C15.2166 1.96776 14.7949 2.04446 14.4687 2.50726C14.1734 2.92756 14.0887 3.28236 13.8258 3.71866C13.6153 4.06756 13.2093 4.38866 13.0764 4.79626C12.9006 5.33496 13.0483 5.82636 12.9548 6.37966C12.8665 6.90016 12.9586 7.41706 13.0081 7.95906C13.0577 8.49406 13.3419 8.95296 13.2574 9.53396C13.1744 10.1097 13.3154 10.7153 13.5794 11.26C13.9344 11.9922 13.6451 12.3229 13.8897 13.0955C14.1759 14.0016 14.5767 14.8859 15.158 15.6474C15.8106 16.5023 16.3758 17.2043 17.4383 17.4773L20.7081 17.6378L23.9781 17.4773C25.0406 17.2043 25.6058 16.5023 26.2585 15.6474C26.8397 14.8859 27.2406 14.0016 27.5266 13.0955C27.7714 12.3229 27.4821 11.9922 27.837 11.26C28.1012 10.7153 28.242 10.1097 28.1589 9.53396C28.0745 8.95296 28.3587 8.49406 28.408 7.95906C28.458 7.41706 28.5498 6.90016 28.4615 6.37966Z" fill="#7F6450"/>
<path opacity="0.098" d="M23.8204 16.7345C23.8127 16.5098 23.7767 16.3182 23.719 16.1531C23.4352 16.3765 23.1121 16.6317 22.7349 16.953C22.2266 17.3858 21.2228 17.7795 20.7831 17.8189V17.8094C20.759 17.816 20.7374 17.8196 20.7159 17.8227C20.7136 17.8224 20.711 17.8216 20.7082 17.8212C20.7059 17.8216 20.7033 17.8224 20.7007 17.8227C20.6791 17.8196 20.6576 17.816 20.6333 17.8094V17.8189C20.1939 17.7795 19.1898 17.3858 18.6816 16.953C18.3045 16.6317 17.9813 16.3765 17.6978 16.1531C17.64 16.3182 17.6039 16.5098 17.5962 16.7345C17.5683 17.5622 17.5292 18.3471 17.4365 19.0735C18.163 20.641 19.3332 22.2159 20.7082 22.2159C22.0834 22.2159 23.2536 20.641 23.9802 19.0735C23.8874 18.3471 23.8483 17.5622 23.8204 16.7345Z" fill="#221E1F"/>
<path d="M26.3445 7.24526C26.1162 6.38876 25.9505 6.04336 25.5712 5.84216C24.8439 5.45636 23.4645 6.01456 20.7078 5.94996C17.9514 6.01456 16.572 5.45636 15.8447 5.84216C15.4655 6.04336 15.2996 6.38876 15.0714 7.24526C14.8518 8.06926 14.5097 10.0047 14.6275 10.6367C15.074 13.0323 14.8266 15.6474 15.7344 17.1027C16.1773 17.8126 18.1043 19.8924 18.4634 20.1915C19.025 20.659 19.7295 20.965 20.6704 20.965C20.6828 20.965 20.6966 20.9668 20.7078 20.9668C20.7193 20.9668 20.7332 20.965 20.7454 20.965C21.6861 20.965 22.3909 20.659 22.9524 20.1915C23.3115 19.8924 25.2385 17.8126 25.6814 17.1027C26.5891 15.6474 26.3419 13.0323 26.7884 10.6367C26.9063 10.0047 26.564 8.06926 26.3445 7.24526Z" fill="#FDD3AE"/>
<path d="M14.8995 11.2844C14.8995 11.2844 14.3746 10.3799 14.1879 11.1233C13.8436 12.4969 15.068 14.0205 15.1217 14.2938C15.1744 14.5672 14.8995 11.2844 14.8995 11.2844Z" fill="#FDD3AE"/>
<path d="M26.517 11.2844C26.517 11.2844 27.0421 10.3799 27.2289 11.1233C27.5729 12.4969 26.3483 14.0205 26.2947 14.2938C26.2423 14.5672 26.517 11.2844 26.517 11.2844Z" fill="#FDD3AE"/>
<path d="M31.3369 39.9333C31.0052 38.6951 30.7734 36.9738 30.7137 34.8104C30.6296 31.7586 31.2024 26.9661 31.4121 24.4766C31.3682 24.4634 31.3194 24.4499 31.2739 24.4365C31.2617 24.4906 31.2545 24.5236 31.2548 24.5229C31.2617 24.4928 31.2666 24.4655 31.2731 24.4363C31.0444 24.3693 30.8018 24.3006 30.5341 24.2284C29.7879 24.0268 29.1335 24.023 28.5056 23.9656C27.5835 27.6156 25.3605 33.7866 20.8531 33.922V33.9205C20.8347 33.9215 20.8165 33.9227 20.7981 33.924C20.7852 33.9248 20.7722 33.9251 20.7592 33.9257C20.7421 33.926 20.7252 33.9278 20.7084 33.9281C20.6917 33.9278 20.6748 33.926 20.6577 33.9257C20.6449 33.9251 20.6317 33.9242 20.6189 33.9234C20.6004 33.9221 20.5824 33.9215 20.564 33.9205V33.922C16.0564 33.7866 13.8335 27.6156 12.9114 23.9656C12.2837 24.023 11.6292 24.0268 10.8829 24.2284C10.6153 24.3006 10.3726 24.3693 10.1439 24.4363C10.1504 24.4655 10.1553 24.4928 10.1623 24.5229C10.1625 24.5236 10.1551 24.4906 10.143 24.4365C10.0977 24.4499 10.0487 24.4634 10.0049 24.4766C10.2146 26.9661 10.7874 31.7586 10.7033 34.8104C10.6437 36.9738 10.4117 38.6951 10.08 39.9333C10.3748 41.541 10.7319 43.3455 11.1521 45.1482C12.3133 50.132 12.0282 55.6771 12.0845 58.6239C12.1329 61.1627 11.7977 61.1961 11.4465 62.5836C11.0629 64.0995 10.5757 65.2498 10.1656 66.7221H20.7084H31.2513C30.8411 65.2498 30.3543 64.0995 29.9705 62.5836C29.6192 61.1961 29.2842 61.1627 29.3325 58.6239C29.3888 55.6771 29.1035 50.132 30.265 45.1482C30.6851 43.3455 31.0421 41.541 31.3369 39.9333Z" fill="#689F38"/>
<path d="M32.0372 71.9353C31.869 68.5038 31.2843 66.7071 30.699 64.9606C29.1603 65.3378 25.9767 65.8662 20.7764 65.8677V65.866C20.7542 65.8664 20.7315 65.8667 20.7089 65.8672C20.6863 65.8667 20.6638 65.8664 20.6416 65.866V65.8677C15.4415 65.8662 12.2579 65.3378 10.7187 64.9606C10.1338 66.7071 9.54898 68.5038 9.38073 71.9353C9.15352 75.074 9.12302 77.808 9.23085 80.435C10.0467 80.791 11.4364 81.2593 13.3397 81.3969C17.9157 81.7276 19.794 80.4461 19.7944 80.4461C19.7944 80.4458 19.7944 80.4465 19.7944 80.4461V80.4242C19.7972 80.075 19.7987 79.7305 19.7995 79.3917C19.8 79.0529 19.7995 78.7184 19.7982 78.3917C19.8736 78.4304 19.9506 78.459 20.0275 78.4893C20.1628 78.5415 20.2996 78.5852 20.4399 78.606C20.4424 78.6067 20.4448 78.6067 20.4474 78.6074C20.5336 78.6195 20.6206 78.6273 20.7089 78.6269C20.7972 78.6273 20.8844 78.6195 20.9706 78.6074C20.9732 78.6067 20.9755 78.6074 20.9782 78.6067C21.1182 78.5859 21.2553 78.5415 21.3903 78.4893C21.4674 78.459 21.5444 78.4301 21.6198 78.3914C21.6184 78.7181 21.618 79.0529 21.6184 79.3917C21.619 79.7305 21.6207 80.075 21.6235 80.4242V80.4451C21.6235 80.4448 21.6235 80.4455 21.6235 80.4451C21.6238 80.4451 23.5024 81.7276 28.0781 81.3969C29.9815 81.2593 31.3713 80.791 32.187 80.435C32.2949 77.808 32.2643 75.074 32.0372 71.9353Z" fill="#6B6A67"/>
</svg>
