<svg width="57" height="151" viewBox="0 0 57 151" fill="none" xmlns="http://www.w3.org/2000/svg">
<path d="M44.506 58.2515C44.0399 55.1161 42.8958 49.9045 44.0096 44.8414C44.7819 41.3311 43.663 38.7366 43.663 38.2275C43.663 29.3161 45.7659 26.0402 45.7659 26.0402C44.6573 25.8197 43.5835 25.2139 40.5338 24.2283C38.1844 23.469 35.6852 23.1274 34.6905 21.6551C33.6879 20.1707 33.6703 19.7726 33.5793 17.5887C33.503 15.7489 29.8428 15.2135 28.7821 15.1116V15.0874L28.5799 15.0865L28.5649 15.0862L28.5155 15.0864L28.4661 15.0862H28.4512L28.2488 15.0874V15.1116C27.188 15.2135 23.5281 15.7489 23.4518 17.5887C23.3606 19.7726 23.3433 20.1707 22.3404 21.6551C21.3457 23.1274 18.8465 23.469 16.4972 24.2283C13.4475 25.2139 12.3737 25.8197 11.2652 26.0402C11.2652 26.0402 13.3681 29.3161 13.3681 38.2275C13.3681 38.7366 12.2493 41.3311 13.0215 44.8414C14.135 49.9045 12.991 55.1161 12.5249 58.2515C12.1748 60.6058 11.1079 66.4638 11.1094 72.1074C11.1097 73.1383 17.4157 70.1391 20.6717 71.5173C22.9964 72.5007 25.1215 78.2244 28.2488 78.6059C28.252 78.6066 28.2549 78.6066 28.2581 78.6073C28.3218 78.615 28.3869 78.6157 28.4512 78.6188V78.6268C28.4728 78.6268 28.4938 78.6235 28.5155 78.6228C28.5371 78.6235 28.5581 78.6268 28.5799 78.6268V78.6188C28.6442 78.6157 28.709 78.615 28.7729 78.6073C28.776 78.6066 28.7788 78.6073 28.7821 78.6066C31.9095 78.2251 34.0347 72.5007 36.3593 71.5173C39.6151 70.1391 45.9212 73.1383 45.9215 72.1074C45.9229 66.4638 44.8562 60.6058 44.506 58.2515Z" fill="#FDD3AE"/>
<path d="M45.9855 72.1075C45.782 69.7791 44.2018 64.2616 36.376 65.3994C31.3292 66.1331 28.8638 75.6146 28.8464 78.606C28.814 84.0978 29.9274 91.1612 30.8481 96.8701C31.0519 98.1365 30.8238 99.3955 30.7746 100.574C30.608 104.597 31.5444 106.289 31.3876 108.655C31.1965 111.532 30.158 114.059 30.3869 119.51C30.6812 126.524 33.3111 134.611 33.0396 139.309C32.9767 140.41 32.831 141.591 32.6257 143.816C32.4252 145.977 31.5829 148.017 31.6049 148.789C31.6646 151.006 34.1511 150.158 35.134 150.09C36.3285 150.006 41.4057 149.475 41.0646 147.761C40.842 146.643 39.671 145.564 39.4238 143.66C39.2863 142.602 38.2254 140.334 38.2314 139.759C38.3359 129.389 41.2255 124.197 41.3151 118.035C41.3751 113.956 40.783 111.153 40.5058 108.556C40.2266 105.958 42.278 99.9076 43.1157 96.6501C45.0667 89.0618 46.5563 78.6269 45.9855 72.1075Z" fill="#FDD3AE"/>
<path d="M52.3387 59.9405C51.7762 60.0168 50.7955 59.5012 48.8404 56.1342C46.7594 52.5508 43.187 42.6768 42.24 37.0037C41.952 35.2796 40.8008 32.6883 40.6553 32.1316C39.6537 28.3042 40.9958 25.1704 41.0043 24.3614C44.0438 24.7064 49.8872 26.6362 51.1445 34.3338C51.5321 36.7087 51.6062 38.0444 52.845 41.1709C54.1935 44.5719 54.6289 51.1113 54.8525 54.8809C54.9094 55.8405 55.1449 59.5603 52.3387 59.9405Z" fill="#FDD3AE"/>
<path d="M54.8961 74.356C54.9432 73.061 53.8396 72.9484 53.0818 72.736C51.9647 72.4228 51.5578 72.6668 50.7673 73.8416C50.2329 75.1995 48.9527 74.9179 48.0134 78.9348C47.7614 80.0135 47.484 81.0557 47.3293 82.0105C47.3125 82.1026 48.1902 82.4243 48.5987 81.4124C49.5875 78.9711 49.9135 79.356 50.4925 78.5246C50.3604 79.6272 50.7235 80.7136 49.3849 83.2506C48.5384 84.8534 47.4557 85.7141 48.1461 86.4354C48.8365 87.1561 52.3199 85.202 54.2374 80.6291C55.0305 78.7379 55.5484 76.4619 54.8961 74.356Z" fill="#FDD3AE"/>
<path d="M50.7097 74.1117V74.1104C50.951 75.6463 51.7703 75.6904 52.4423 75.7277C53.1145 75.7637 54.9635 76.8797 55.1302 75.7321C55.2343 75.0128 55.1443 74.1609 55.2532 73.276C56.5219 62.971 56.6184 57.5959 53.7345 53.378C53.1065 52.4591 51.6242 50.8913 50.1966 51.3874C48.0939 52.117 47.9386 57.2828 47.9356 58.417C47.9201 64.7636 50.1342 68.5058 50.6852 72.6236C50.7737 73.2865 50.7513 73.7508 50.7097 74.1117Z" fill="#FDD3AE"/>
<path d="M11.0452 72.1075C11.2488 69.7791 12.829 64.2616 20.6547 65.3994C25.7017 66.1331 28.1669 75.6146 28.1844 78.606C28.2167 84.0978 27.1032 91.1612 26.1827 96.8701C25.9787 98.1365 26.2068 99.3955 26.256 100.574C26.4228 104.597 25.4863 106.289 25.6431 108.655C25.8342 111.532 26.8729 114.059 26.644 119.51C26.3495 126.524 23.7197 134.611 23.9911 139.309C24.0539 140.41 24.1998 141.591 24.405 143.816C24.6054 145.977 25.4479 148.017 25.4258 148.789C25.3661 151.006 22.8798 150.158 21.8968 150.09C20.7023 150.006 15.6249 149.475 15.966 147.761C16.1888 146.643 17.3597 145.564 17.607 143.66C17.7446 142.602 18.8054 140.334 18.7995 139.759C18.6948 129.389 15.805 124.197 15.7154 118.035C15.6557 113.956 16.2479 111.153 16.5248 108.556C16.8039 105.958 14.7529 99.9076 13.9152 96.6501C11.9638 89.0618 10.4742 78.6269 11.0452 72.1075Z" fill="#FDD3AE"/>
<path d="M4.692 59.9405C5.2545 60.0168 6.2353 59.5012 8.1904 56.1342C10.2714 52.5508 13.8436 42.6768 14.7909 37.0037C15.0787 35.2796 16.2301 32.6883 16.3756 32.1316C17.3772 28.3042 16.0349 25.1704 16.0265 24.3614C12.9867 24.7064 7.1437 26.6362 5.8865 34.3338C5.4984 36.7087 5.4246 38.0444 4.1858 41.1709C2.8375 44.5719 2.402 51.1113 2.1781 54.8809C2.1215 55.8405 1.886 59.5603 4.692 59.9405Z" fill="#FDD3AE"/>
<path d="M2.13499 74.356C2.08789 73.061 3.19149 72.9484 3.94919 72.736C5.06639 72.4228 5.47309 72.6668 6.26339 73.8416C6.79829 75.1995 8.07829 74.9179 9.01729 78.9348C9.26959 80.0135 9.54699 81.0557 9.70139 82.0105C9.71819 82.1026 8.84059 82.4243 8.43229 81.4124C7.44329 78.9711 7.11719 79.356 6.53859 78.5246C6.67039 79.6272 6.30759 80.7136 7.64609 83.2506C8.49239 84.8534 9.57539 85.7141 8.88489 86.4354C8.19439 87.1561 4.71079 85.202 2.79359 80.6291C2.00059 78.7379 1.48259 76.4619 2.13499 74.356Z" fill="#FDD3AE"/>
<path d="M6.32058 74.1117V74.1104C6.07948 75.6463 5.26038 75.6904 4.58828 75.7277C3.91608 75.7637 2.06698 76.8797 1.90008 75.7321C1.79598 75.0128 1.88638 74.1609 1.77728 73.276C0.508884 62.971 0.411884 57.5959 3.29608 53.378C3.92418 52.4591 5.40638 50.8913 6.83398 51.3874C8.93638 52.117 9.09198 57.2828 9.09478 58.417C9.11048 64.7636 6.89638 68.5058 6.34548 72.6236C6.25698 73.2865 6.27928 73.7508 6.32058 74.1117Z" fill="#FDD3AE"/>
<path d="M44.5057 58.2516C44.0396 55.1162 42.8955 49.9046 44.0093 44.8415C44.7816 41.3312 43.9732 39.262 43.6627 38.2276C43.6186 38.08 43.5752 37.9387 43.5313 37.7944C42.1518 33.235 41.0708 30.1181 41.4665 24.3614C41.4665 24.3614 38.1289 23.4964 37.7965 23.4021C37.7948 23.4015 37.7907 23.4005 37.7894 23.4C37.7877 23.4118 37.7846 23.4241 37.7827 23.436C37.1694 27.1601 33.7744 32.5049 30.0876 33.6845C29.582 33.8264 29.0573 33.9079 28.5151 33.9192C27.9729 33.9079 27.4481 33.8264 26.9426 33.6845C23.2557 32.5049 19.8608 27.1601 19.2475 23.436C19.2456 23.4241 19.2429 23.4118 19.2411 23.4C19.2397 23.4005 19.2353 23.4015 19.2337 23.4021C18.9015 23.4964 15.5635 24.3614 15.5635 24.3614C15.9594 30.1181 14.8783 33.235 13.4988 37.7944C13.4551 37.9387 13.4117 38.08 13.3674 38.2276C13.0569 39.262 12.2485 41.3312 13.0208 44.8415C14.1346 49.9046 12.9906 55.1162 12.5244 58.2516C12.2712 59.9536 11.644 63.4863 11.3164 67.4456C16.4166 70.2917 27.1631 70.4646 28.4505 70.4751C28.4505 70.4751 28.477 70.4755 28.5151 70.4754C28.5532 70.4755 28.5792 70.4757 28.5792 70.4757C29.8668 70.4652 40.6137 70.2917 45.7138 67.4456C45.3861 63.4863 44.759 59.9536 44.5057 58.2516Z" fill="#689F38"/>
<path d="M45.9852 72.1075C45.9711 71.9415 45.9485 71.7573 45.9181 71.5623C45.8945 69.5572 45.744 67.5412 45.5463 65.6782C42.9028 66.3496 36.9244 68.4094 28.5151 68.4198C20.1058 68.4094 14.1273 66.3496 11.484 65.6782C11.286 67.5412 11.1354 69.5572 11.1122 71.5623C11.0819 71.7573 11.0591 71.9415 11.0449 72.1075C10.8358 74.4947 10.9039 77.4087 11.1691 80.5141C12.4502 80.8569 14.4855 81.2697 17.1959 81.3969C22.9358 81.6668 26.8906 80.8956 28.1493 80.6032C28.1747 79.9199 28.188 79.2514 28.1841 78.606C28.1841 78.6027 28.1837 78.5983 28.1837 78.5949C28.2054 78.5983 28.2267 78.6034 28.2484 78.606C28.2516 78.6067 28.2545 78.6067 28.2577 78.6074C28.3214 78.6151 28.3865 78.6158 28.4508 78.6189V78.6269C28.4724 78.6269 28.4934 78.6236 28.5151 78.6229C28.5367 78.6236 28.5577 78.6269 28.5795 78.6269V78.6189C28.6438 78.6158 28.7086 78.6151 28.7725 78.6074C28.7756 78.6067 28.7784 78.6074 28.7817 78.6067C28.8035 78.6041 28.8248 78.5983 28.8463 78.5949C28.8463 78.5983 28.8461 78.6027 28.8461 78.606C28.8422 79.2514 28.8555 79.9199 28.8811 80.6032C30.1395 80.8956 34.0945 81.6668 39.8343 81.3969C42.5448 81.2697 44.5801 80.8569 45.8612 80.5141C46.1263 77.4087 46.1943 74.4947 45.9852 72.1075Z" fill="#6B6A67"/>
<path d="M33.676 19.2069C33.6289 18.7843 33.6078 18.2746 33.579 17.5887C33.5688 17.3477 33.4961 17.1297 33.3772 16.9313C33.0173 16.9054 28.5511 18.4808 28.5245 18.4841C28.5217 18.4837 28.5184 18.483 28.5152 18.4827C28.5119 18.483 28.5086 18.4837 28.5058 18.4841C28.4793 18.4808 24.0129 16.9054 23.6531 16.9313C23.5342 17.1297 23.4612 17.3477 23.4515 17.5887C23.4227 18.2746 23.4013 18.7842 23.3545 19.2067C24.3722 20.7945 26.7495 22.6473 28.5073 22.6473H28.5229C30.2805 22.6473 32.6582 20.7946 33.676 19.2069Z" fill="#EAC5A2"/>
<path d="M36.8789 6.37966C36.7782 5.82636 36.9371 5.33496 36.7475 4.79626C36.604 4.38866 36.1662 4.06756 35.9392 3.71866C35.6557 3.28236 35.5642 2.92756 35.2458 2.50726C34.8938 2.04446 34.4389 1.96776 33.9611 1.69776C33.2966 1.32156 33.0227 0.932264 32.2818 0.772364C31.0112 0.497564 29.8523 0.275764 28.5147 0.308364C27.177 0.275764 26.018 0.497564 24.7475 0.772364C24.0066 0.932264 23.7328 1.32156 23.0683 1.69776C22.5903 1.96776 22.1355 2.04446 21.7835 2.50726C21.4652 2.92756 21.3737 3.28236 21.0901 3.71866C20.8631 4.06756 20.4251 4.38866 20.2817 4.79626C20.0922 5.33496 20.2512 5.82636 20.1506 6.37966C20.0554 6.90016 19.7973 7.41706 19.851 7.95906C19.9044 8.49406 20.2111 8.95296 20.12 9.53396C20.03 10.1097 20.1825 10.7153 20.4672 11.26C20.8503 11.9922 20.5383 12.3229 20.8022 13.0955C21.1106 14.0016 21.5429 14.8859 22.1703 15.6474C22.8742 16.5023 23.8409 17.2043 24.9871 17.4773L28.5147 17.6378L32.0422 17.4773C33.1886 17.2043 34.155 16.5023 34.8591 15.6474C35.4864 14.8859 35.9188 14.0016 36.2273 13.0955C36.4909 12.3229 36.1792 11.9922 36.5622 11.26C36.8471 10.7153 36.9995 10.1097 36.9091 9.53396C36.8182 8.95296 37.1251 8.49406 37.1783 7.95906C37.2318 7.41706 36.9738 6.90016 36.8789 6.37966Z" fill="#7F6450"/>
<path d="M35.0296 11.2844C35.0296 11.2844 35.5547 10.3799 35.7415 11.1233C36.0858 12.4969 34.8612 14.0205 34.8075 14.2938C34.755 14.5672 35.0296 11.2844 35.0296 11.2844Z" fill="#FDD3AE"/>
<path d="M22.0014 11.2844C22.0014 11.2844 21.4764 10.3799 21.2896 11.1233C20.9449 12.4969 22.1695 14.0205 22.2232 14.2938C22.2762 14.5672 22.0014 11.2844 22.0014 11.2844Z" fill="#FDD3AE"/>
<path d="M34.9158 10.6367C34.6793 9.36306 34.8326 8.06926 34.596 7.24526C34.3497 6.38876 34.1706 6.04336 33.7616 5.84216C32.977 5.45636 31.4887 6.01456 28.5153 5.94996C25.5418 6.01456 24.0535 5.45636 23.2689 5.84216C22.8601 6.04336 22.6809 6.38876 22.4345 7.24526C22.198 8.06926 22.3512 9.36306 22.1149 10.6367C21.6141 13.3361 22.1469 14.9329 22.7428 16.9575C23.1826 18.4549 25.0731 21.078 28.5153 21.5448C31.9574 21.078 33.848 18.4549 34.2878 16.9575C34.8836 14.9329 35.4165 13.3361 34.9158 10.6367Z" fill="#FDD3AE"/>
</svg>
