<svg width="52" height="67" viewBox="0 0 52 67" fill="none" xmlns="http://www.w3.org/2000/svg">
<path opacity="0.5" d="M26 0C16.8721 0 14.8535 6.51389 12.6953 13.4349C12.1177 15.2815 11.521 17.2007 10.7656 19.1346C9.59131 22.1225 8.03613 24.2163 6.39844 26.4045C3.25635 30.5993 0 34.9249 0 45.3646C0 59.1121 9.47705 67 26 67C42.5229 67 52 59.1121 52 45.3646C52 34.9176 48.7437 30.5993 45.6016 26.4045C43.9639 24.2163 42.4087 22.1225 41.2344 19.1346C40.479 17.208 39.8823 15.2815 39.3047 13.4349C37.1465 6.51389 35.1279 0 26 0Z" fill="#E5E8A1"/>
</svg>
