<?xml version="1.0" standalone="no"?>
<!-- Generator: Adobe Fireworks 10, Export SVG Extension by Aaron Beall (http://fireworks.abeall.com) . Version: 0.6.1  -->
<!DOCTYPE svg PUBLIC "-//W3C//DTD SVG 1.1//EN" "http://www.w3.org/Graphics/SVG/1.1/DTD/svg11.dtd">
<svg id="Untitled-Str%E1nka%201" viewBox="0 0 40 150" style="background-color:#ffffff00" version="1.1"
	xmlns="http://www.w3.org/2000/svg" xmlns:xlink="http://www.w3.org/1999/xlink" xml:space="preserve"
	x="0px" y="0px" width="40px" height="150px"
>
	<g id="Vrstva%201">
		<g id="underweight">
			<path d="M 29.2396 16.1083 C 29.1521 13.0795 29.0228 10.182 28.5735 7.6933 C 28.1803 5.5166 27.3208 2.9339 25.526 1.6475 C 24.1993 0.5774 22.3806 -0.0077 19.8688 0.0622 C 19.8627 0.062 19.8572 0.0625 19.851 0.0624 C 19.8448 0.0625 19.8394 0.062 19.833 0.0622 C 17.3212 -0.0077 15.5024 0.5774 14.1758 1.6475 C 12.381 2.9339 11.5216 5.5166 11.1284 7.6933 C 10.679 10.182 10.5498 13.0795 10.4622 16.1083 C 10.3723 19.2272 10.6366 24.399 10.9749 26.5118 C 13.4518 25.9412 26.25 25.9412 28.7269 26.5118 C 29.0652 24.399 29.3295 19.2272 29.2396 16.1083 Z" fill="#9c4530"/>
			<g>
				<g>
					<path d="M 27.0997 147.7072 C 27.4272 149.4375 25.3715 149.7526 24.224 149.8378 C 23.2794 149.9068 20.7015 150.6208 20.644 148.3817 C 20.623 147.6013 21.6218 145.6832 21.8145 143.499 C 22.0114 141.2512 22.3413 139.0824 22.4015 137.9708 C 22.6624 133.2244 21.4263 123.3576 21.1436 116.2714 C 20.9237 110.764 21.3953 107.5416 21.5789 104.6341 C 21.7296 102.2441 20.6571 100.5248 20.99 96.4712 C 22.0914 83.062 20.6134 80.8104 20.2131 74.8693 C 20.0212 72.018 20.0035 64.8171 26.7654 63.9952 C 31.5707 63.4111 32.5112 68.5334 32.5186 71.2209 C 32.5455 81.0035 28.3831 91.8353 28.5546 95.9338 C 28.7269 100.0529 27.8871 101.9642 27.9514 104.6009 C 28.0365 108.0884 28.7837 113.0105 28.0852 117.6598 C 27.1602 123.8172 25.5496 133.7476 25.6246 139.1833 C 25.6331 139.7645 25.6838 142.056 25.8162 143.1246 C 26.0538 145.0487 26.8856 146.5762 27.0997 147.7072 Z" fill="#fdd3ae"/>
					<g id="right%20hand">
						<path d="M 37.7543 51.8856 C 37.8538 52.9647 36.8145 53.9006 35.7025 54.1895 C 35.1934 54.3212 33.7291 54.6423 33.455 52.1697 C 32.6281 44.7141 30.4688 33.9028 29.6865 32.2738 C 28.9148 30.6678 29.1935 29.3941 29.2169 28.6085 C 29.9705 24.3685 33.9612 24.0079 35.5469 28.4299 C 35.9004 29.4142 37.1034 32.6893 36.9688 37.3163 C 36.8215 42.3434 37.3232 47.2065 37.7543 51.8856 Z" fill="#fdd3ae"/>
						<path d="M 39.5668 72.9894 C 39.6221 71.7505 38.7771 71.1066 38.1857 70.9522 C 37.3135 70.7255 37.1759 70.9918 36.5387 72.164 C 36.0994 73.4948 34.9143 73.3012 34.1196 77.1949 C 33.9063 78.2415 33.674 79.2537 33.5389 80.1742 C 33.5244 80.264 34.2081 80.5148 34.5431 79.5226 C 35.3542 77.1285 35.6045 77.4752 36.0707 76.6452 C 35.9514 77.7051 36.2205 78.7181 35.1335 81.2261 C 34.4464 82.8116 33.5844 83.7012 34.1156 84.3455 C 34.6475 84.9891 37.506 82.6293 38.979 78.4117 C 39.5382 76.8135 39.2308 75.3051 39.5668 72.9894 Z" fill="#fdd3ae"/>
						<path d="M 36.5387 72.164 C 36.5387 72.164 36.62 74.009 37.8945 74.1499 C 38.5371 74.221 39.4482 73.8589 39.5782 72.6958 C 39.6591 71.9664 39.6091 71.1121 39.6307 70.2119 C 39.9088 58.8068 39.3789 55.8251 37.9036 51.5421 C 37.5387 50.4853 36.42 49.0278 35.0891 49.6309 C 33.5576 50.3248 33.5151 51.5657 33.5427 52.7112 C 33.6973 59.1213 35.5046 62.763 36.4755 70.6618 C 36.5576 71.3314 36.5691 71.798 36.5387 72.164 Z" fill="#fdd3ae"/>
					</g>
				</g>
				<path d="M 12.6021 147.7072 C 12.2747 149.4375 14.3303 149.7526 15.4779 149.8378 C 16.4224 149.9068 19.0002 150.6208 19.0579 148.3817 C 19.0787 147.6013 18.08 145.6832 17.8875 143.499 C 17.6904 141.2512 17.3606 139.0824 17.3003 137.9708 C 17.0394 133.2244 18.2755 123.3576 18.5583 116.2714 C 18.7781 110.764 18.3065 107.5416 18.123 104.6341 C 17.9722 102.2441 19.0447 100.5248 18.7118 96.4712 C 17.6104 83.062 19.0885 80.8104 19.4888 74.8693 C 19.6805 72.018 19.6985 64.8171 12.9364 63.9952 C 8.1311 63.4111 7.1907 68.5334 7.1832 71.2209 C 7.1565 81.0035 11.3187 91.8353 11.1472 95.9338 C 10.9749 100.0529 11.8147 101.9642 11.7505 104.6009 C 11.6655 108.0884 10.9182 113.0105 11.6167 117.6598 C 12.5417 123.8172 14.1522 133.7476 14.0771 139.1833 C 14.0688 139.7645 14.0179 142.056 13.8856 143.1246 C 13.6479 145.0487 12.8162 146.5762 12.6021 147.7072 Z" fill="#fdd3ae"/>
				<g id="right%20hand2">
					<path d="M 1.9475 51.8856 C 1.8481 52.9647 2.8876 53.9006 3.9993 54.1895 C 4.5084 54.3212 5.9727 54.6423 6.2468 52.1697 C 7.0737 44.7141 9.233 33.9028 10.0154 32.2738 C 10.7871 30.6678 10.5083 29.3941 10.485 28.6085 C 9.7316 24.3685 5.7406 24.0079 4.155 28.4299 C 3.8015 29.4142 2.5984 32.6893 2.733 37.3163 C 2.8804 42.3434 2.3787 47.2065 1.9475 51.8856 Z" fill="#fdd3ae"/>
					<path d="M 0.135 72.9894 C 0.0798 71.7505 0.9248 71.1066 1.5162 70.9522 C 2.3884 70.7255 2.5259 70.9918 3.1631 72.164 C 3.6024 73.4948 4.7875 73.3012 5.5823 77.1949 C 5.7957 78.2415 6.028 79.2537 6.1628 80.1742 C 6.1774 80.264 5.4937 80.5148 5.1587 79.5226 C 4.3475 77.1285 4.0974 77.4752 3.6312 76.6452 C 3.7504 77.7051 3.4814 78.7181 4.5684 81.2261 C 5.2554 82.8116 6.1174 83.7012 5.5863 84.3455 C 5.0544 84.9891 2.1958 82.6293 0.7228 78.4117 C 0.1636 76.8135 0.4709 75.3051 0.135 72.9894 Z" fill="#fdd3ae"/>
					<path d="M 3.1631 72.164 C 3.1631 72.164 3.082 74.009 1.8074 74.1499 C 1.1648 74.221 0.2535 73.8589 0.1235 72.6958 C 0.0428 71.9664 0.0927 71.1121 0.071 70.2119 C -0.207 58.8068 0.3229 55.8251 1.7983 51.5421 C 2.1632 50.4853 3.2817 49.0278 4.6128 49.6309 C 6.1443 50.3248 6.1866 51.5657 6.1591 52.7112 C 6.0045 59.1213 4.1973 62.763 3.2263 70.6618 C 3.1443 71.3314 3.1328 71.798 3.1631 72.164 Z" fill="#fdd3ae"/>
				</g>
				<path d="M 29.8383 40.8544 C 30.1248 39.3262 31.7804 38.0745 30.6274 32.6298 L 34.1443 25.9616 C 31.7861 25.0604 31.24 25.647 28.9565 25.0604 C 26.7556 24.4951 24.0806 23.6232 23.5527 21.549 C 23.171 20.0526 22.8889 14.5323 22.8889 14.5323 L 19.8654 14.5209 L 19.851 14.5209 L 19.8364 14.5209 L 16.813 14.5323 C 16.813 14.5323 16.5308 20.0526 16.1492 21.549 C 15.6213 23.6232 12.9463 24.4951 10.7454 25.0604 C 8.4619 25.647 7.9156 25.0604 5.5575 25.9616 L 9.0743 32.6298 C 7.9214 38.0745 9.5771 39.3262 9.8635 40.8544 C 10.553 44.5324 11.5781 44.6182 11.5781 52.0839 C 11.5781 60.0462 7.1831 59.2707 7.2478 72.8076 C 7.2478 72.8076 15.7781 74.5562 19.8364 74.8907 L 19.8364 74.8934 C 19.8405 74.8928 19.8462 74.8928 19.8506 74.8921 L 19.851 74.8921 L 19.8513 74.8921 C 19.8556 74.8928 19.8613 74.8928 19.8654 74.8934 L 19.8654 74.8907 C 23.9237 74.5562 32.454 72.8076 32.454 72.8076 C 32.5188 59.2707 28.1238 60.0462 28.1238 52.0839 C 28.1238 44.6182 29.1489 44.5324 29.8383 40.8544 Z" fill="#fdd3ae"/>
			</g>
			<path opacity="0.098" d="M 23.2141 19.0897 C 21.9888 20.1481 20.4508 20.8116 19.8513 20.8217 L 19.851 20.8217 L 19.8506 20.8217 C 19.2511 20.8116 17.713 20.1481 16.4878 19.0897 C 16.4399 19.5936 16.3884 20.0735 16.3333 20.4916 C 16.8503 21.4516 18.1564 23.1702 19.8506 23.4563 L 19.851 23.4563 L 19.8513 23.4563 C 21.5454 23.1702 22.8516 21.4516 23.3687 20.4916 C 23.3134 20.0735 23.262 19.5936 23.2141 19.0897 Z" fill="#221e1f"/>
			<path d="M 19.8688 4.059 C 19.8627 4.0591 19.8569 4.0597 19.851 4.0597 C 19.8448 4.0597 19.8391 4.0591 19.833 4.059 C 15.1631 4.1123 13.479 8.0481 13.479 11.4501 C 13.479 13.9941 14.3257 14.4968 14.9878 17.103 C 15.5513 19.3207 19.0753 20.8181 19.851 20.8181 C 20.6265 20.8181 24.1508 19.3207 24.7141 17.103 C 25.3762 14.4968 26.2228 13.9941 26.2228 11.4501 C 26.2228 8.0481 24.5387 4.1123 19.8688 4.059 Z" fill="#fdd3ae"/>
			<path d="M 26.6147 11.0837 C 27.4846 10.8273 28.1151 10.6282 28.9752 10.3446 C 28.887 9.4478 28.7897 8.5799 28.6853 7.7554 C 28.3438 5.0564 27.4335 2.996 25.6387 1.7097 C 24.312 0.6396 22.4932 0.0544 19.9807 0.1244 C 17.4688 0.0544 15.65 0.6396 14.3235 1.7097 C 12.5286 2.996 11.6692 5.5788 11.276 7.7554 C 10.9802 9.3931 10.8245 11.2096 10.7267 13.1221 C 11.7283 13.083 11.8367 13.056 12.8361 12.9811 C 12.7849 12.5759 13.2949 12.0422 13.2949 11.5251 C 13.2949 9.1865 14.6334 6.907 16.0574 5.5478 C 16.7927 4.8452 26.3596 7.8354 26.6147 11.0837 Z" fill="#9c4530"/>
			<path d="M 14.024 11.7424 C 14.024 11.7424 13.3093 10.9144 13.0559 11.5949 C 12.5873 12.8521 14.2529 14.2465 14.3257 14.4968 C 14.3973 14.7471 14.024 11.7424 14.024 11.7424 Z" fill="#fdd3ae"/>
			<path d="M 25.6779 11.7424 C 25.6779 11.7424 26.3925 10.9144 26.646 11.5949 C 27.1145 12.8521 25.449 14.2465 25.3762 14.4968 C 25.3044 14.7471 25.6779 11.7424 25.6779 11.7424 Z" fill="#fdd3ae"/>
			<path d="M 28.7367 56.2603 L 28.7367 56.2603 C 27.0349 51.5212 28.9735 45.4683 29.8383 40.8544 C 29.8383 39.3609 31.6292 38.1693 30.748 33.251 C 30.7091 33.0457 30.6727 32.8437 30.6274 32.6298 C 30.6274 32.6298 29.9889 29.7723 30.7876 25.3537 C 30.0801 25.3158 30.0839 25.35 28.9565 25.0604 C 28.7579 25.0093 28.5546 24.9547 28.3501 24.898 C 28.3461 24.899 28.3417 24.9045 28.3378 24.9037 C 28.3378 24.9037 28.3378 25.2469 28.3374 25.2469 C 27.7791 34.3207 21.6888 35.8654 19.9489 36.1165 C 19.9159 36.1212 19.8876 36.1149 19.8654 36.1133 L 19.8654 36.1116 C 19.8623 36.1122 19.8556 36.1122 19.851 36.1126 L 19.851 36.1126 L 19.851 36.1126 C 19.8462 36.1122 19.8395 36.1122 19.8364 36.1116 L 19.8364 36.1133 C 19.8142 36.1149 19.7859 36.1212 19.7529 36.1165 C 18.0129 35.8654 11.9229 34.3207 11.3644 25.2469 C 11.364 25.2469 11.364 24.9037 11.364 24.9037 C 11.3601 24.9045 11.3557 24.899 11.3518 24.898 C 11.1472 24.9547 10.9441 25.0093 10.7454 25.0604 C 9.6182 25.35 9.6217 25.3158 8.9143 25.3537 C 9.7131 29.7723 9.0743 32.6298 9.0743 32.6298 C 9.0291 32.8437 8.9927 33.0457 8.954 33.251 C 8.0729 38.1693 9.8635 39.3609 9.8635 40.8544 C 10.3672 43.5412 12.8191 51.0977 10.9651 56.2603 L 10.9651 56.2603 C 10.0101 58.9222 8.218 62.0046 7.5271 67.4291 C 13.0031 70.0168 19.1796 74.637 19.4738 74.858 C 19.5979 74.8699 19.7195 74.881 19.8364 74.8907 L 19.8364 74.8934 C 19.8405 74.8928 19.8462 74.8928 19.8506 74.8921 L 19.8507 74.8921 L 19.851 74.8921 L 19.851 74.8921 L 19.8511 74.8921 L 19.8511 74.8921 L 19.8513 74.8921 C 19.8556 74.8928 19.8613 74.8928 19.8654 74.8934 L 19.8654 74.8907 C 19.9824 74.881 20.104 74.8699 20.228 74.858 C 20.5223 74.637 26.6987 70.0168 32.1748 67.4291 C 31.4844 62.0078 29.686 58.9063 28.7367 56.2603 Z" fill="#689f38"/>
			<path opacity="0.098" d="M 30.748 33.251 C 30.7908 35.431 30.1331 39.6844 26.9977 40.6135 C 24.1865 41.4467 21.7642 40.3246 19.851 40.2584 C 17.9377 40.3246 15.5153 41.4467 12.7043 40.6135 C 9.5688 39.6844 8.9111 35.431 8.954 33.251 C 8.0729 38.1693 9.8635 39.3609 9.8635 40.8544 C 10.1992 42.6449 10.6139 44.0745 10.9515 45.9299 C 10.9409 44.644 11.0679 43.9304 11.6093 43.3753 C 13.0734 41.8741 18.7509 42.0065 19.851 42.033 C 20.9512 42.0065 26.6284 41.8741 28.0925 43.3753 C 28.634 43.9304 28.761 44.644 28.7505 45.9299 C 29.0879 44.0745 29.5027 42.6449 29.8383 40.8544 C 29.8383 39.3609 31.6292 38.1693 30.748 33.251 Z" fill="#221e1f"/>
		</g>
	</g>
</svg>