<svg width="31" height="149" viewBox="0 0 31 149" fill="none" xmlns="http://www.w3.org/2000/svg">
<path d="M24.9794 15.9649C24.8927 12.963 24.7645 10.0913 24.3192 7.62477C23.9295 5.46744 23.0777 2.90774 21.2988 1.63279C19.9839 0.572215 18.1814 -0.00767672 15.692 0.061601C15.686 0.0614028 15.6805 0.0618983 15.6744 0.0617992C15.6682 0.0618983 15.6629 0.0614028 15.6565 0.061601C13.1671 -0.00767672 11.3645 0.572215 10.0497 1.63279C8.27086 2.90774 7.41911 5.46744 7.02941 7.62477C6.58401 10.0913 6.45596 12.963 6.36914 15.9649C6.28004 19.056 6.54199 24.1817 6.87727 26.2757C9.33212 25.7102 22.0164 25.7102 24.4712 26.2757C24.8065 24.1817 25.0685 19.056 24.9794 15.9649Z" fill="#9C4530"/>
<path d="M21.2654 146.392C21.5179 148.107 19.9326 148.419 19.0476 148.504C18.3192 148.572 16.3311 149.28 16.2867 147.061C16.2706 146.287 17.0408 144.386 17.1894 142.222C17.3413 139.994 17.5957 137.844 17.6421 136.743C17.8433 132.038 16.8901 122.259 16.672 115.236C16.5025 109.778 16.8661 106.584 17.0077 103.703C17.124 101.334 16.2969 99.6299 16.5536 95.6124C17.403 82.3226 16.2631 80.091 15.9544 74.2028C15.8064 71.3769 15.7928 64.2401 21.0076 63.4255C24.7134 62.8466 25.4387 67.9233 25.4444 70.5869C25.4652 80.2824 22.2551 91.0178 22.3874 95.0798C22.5203 99.1622 21.8726 101.057 21.9222 103.67C21.9878 107.126 22.5641 112.004 22.0254 116.612C21.312 122.715 20.0699 132.557 20.1278 137.944C20.1343 138.52 20.1734 140.791 20.2755 141.85C20.4588 143.757 21.1003 145.271 21.2654 146.392Z" fill="#FDD3AE"/>
<path d="M29.4812 51.4237C29.5579 52.4932 28.7564 53.4208 27.8988 53.7071C27.5062 53.8377 26.377 54.1559 26.1656 51.7053C25.5279 44.3161 23.8626 33.601 23.2593 31.9865C22.6642 30.3948 22.8791 29.1325 22.8972 28.3539C23.4783 24.1516 26.556 23.7942 27.7788 28.1769C28.0515 29.1524 28.9792 32.3983 28.8754 36.9841C28.7618 41.9665 29.1487 46.7863 29.4812 51.4237Z" fill="#FDD3AE"/>
<path d="M30.8793 72.3397C30.922 71.1118 30.2703 70.4736 29.8142 70.3206C29.1416 70.0959 29.0355 70.3599 28.5441 71.5216C28.2053 72.8406 27.2913 72.6487 26.6785 76.5077C26.514 77.545 26.3348 78.5482 26.2306 79.4605C26.2195 79.5495 26.7467 79.7981 27.0051 78.8147C27.6306 76.4419 27.8236 76.7855 28.1832 75.9629C28.0912 77.0134 28.2987 78.0174 27.4604 80.503C26.9305 82.0744 26.2657 82.9561 26.6754 83.5947C27.0856 84.2326 29.2901 81.8938 30.426 77.7137C30.8573 76.1297 30.6202 74.6348 30.8793 72.3397Z" fill="#FDD3AE"/>
<path d="M28.5437 71.5217C28.5437 71.5217 28.6064 73.3502 29.5893 73.4899C30.0848 73.5603 30.7875 73.2015 30.8877 72.0487C30.9501 71.3258 30.9116 70.4791 30.9282 69.5869C31.1427 58.2834 30.734 55.3282 29.5963 51.0833C29.3149 50.0359 28.4521 48.5914 27.4257 49.1891C26.2447 49.8769 26.2119 51.1067 26.2332 52.242C26.3524 58.5951 27.7462 62.2043 28.4949 70.0328C28.5582 70.6965 28.5671 71.1589 28.5437 71.5217Z" fill="#FDD3AE"/>
<path d="M10.0844 146.392C9.83193 148.107 11.4172 148.419 12.3022 148.504C13.0306 148.572 15.0186 149.28 15.0631 147.061C15.0792 146.287 14.309 144.386 14.1605 142.221C14.0085 139.994 13.7542 137.844 13.7077 136.743C13.5065 132.038 14.4597 122.259 14.6778 115.236C14.8473 109.778 14.4836 106.584 14.3421 103.703C14.2258 101.334 15.0529 99.6299 14.7962 95.6124C13.9468 82.3225 15.0867 80.091 15.3954 74.2028C15.5433 71.3768 15.5571 64.2401 10.3422 63.4255C6.63639 62.8466 5.91116 67.9233 5.90537 70.5868C5.88478 80.2824 9.09466 91.0177 8.9624 95.0797C8.82952 99.1622 9.47718 101.056 9.42767 103.67C9.36211 107.126 8.7858 112.004 9.32448 116.612C10.0378 122.715 11.2799 132.557 11.2219 137.944C11.2155 138.52 11.1763 140.791 11.0743 141.85C10.8909 143.757 10.2495 145.271 10.0844 146.392Z" fill="#FDD3AE"/>
<path d="M1.86739 51.4237C1.79074 52.4932 2.5924 53.4208 3.44974 53.7071C3.84235 53.8377 4.97162 54.1559 5.18301 51.7053C5.82071 44.3161 7.48596 33.601 8.08934 31.9865C8.68448 30.3948 8.46947 29.1325 8.4515 28.3539C7.87048 24.1516 4.79262 23.7942 3.56981 28.1769C3.29719 29.1524 2.36937 32.3983 2.47317 36.9841C2.58684 41.9665 2.19993 46.7863 1.86739 51.4237Z" fill="#FDD3AE"/>
<path d="M0.468781 72.3396C0.426211 71.1117 1.07787 70.4736 1.53396 70.3206C2.2066 70.0959 2.31264 70.3598 2.80405 71.5216C3.14283 72.8405 4.05678 72.6486 4.66973 76.5077C4.8343 77.545 5.01345 78.5482 5.11741 79.4605C5.12867 79.5495 4.6014 79.798 4.34305 78.8147C3.71745 76.4419 3.52458 76.7855 3.16504 75.9629C3.25697 77.0133 3.04952 78.0173 3.88781 80.503C4.41762 82.0744 5.0824 82.9561 4.67281 83.5946C4.26261 84.2325 2.05807 81.8937 0.922091 77.7136C0.490837 76.1297 0.727827 74.6347 0.468781 72.3396Z" fill="#FDD3AE"/>
<path d="M2.80466 71.5217C2.80466 71.5217 2.74211 73.3502 1.75914 73.4899C1.26357 73.5603 0.560779 73.2015 0.460523 72.0487C0.398287 71.3258 0.43677 70.4791 0.420035 69.5869C0.205642 58.2834 0.6143 55.3282 1.75213 51.0833C2.03354 50.0359 2.89612 48.5914 3.92266 49.1891C5.10375 49.8769 5.13637 51.1067 5.11517 52.242C4.99594 58.5951 3.60223 62.2043 2.8534 70.0328C2.79016 70.6965 2.78129 71.1589 2.80466 71.5217Z" fill="#FDD3AE"/>
<path d="M23.3757 40.4907C23.5966 38.9761 24.8734 37.7355 23.9843 32.3393L26.6965 25.7305C24.8778 24.8373 24.4567 25.4187 22.6957 24.8373C20.9983 24.277 18.9354 23.4129 18.5283 21.3571C18.2339 19.8741 18.0163 14.4029 18.0163 14.4029L15.6846 14.3916H15.6735H15.6623L13.3306 14.4029C13.3306 14.4029 13.113 19.8741 12.8187 21.3571C12.4116 23.4129 10.3486 24.277 8.65129 24.8373C6.89026 25.4187 6.46895 24.8373 4.65039 25.7305L7.36254 32.3393C6.47343 37.7355 7.7503 38.9761 7.97117 40.4907C8.50291 44.1359 9.29347 44.221 9.29347 51.6202C9.29347 59.5116 5.90405 58.743 5.95395 72.1594C5.95395 72.1594 12.5325 73.8924 15.6623 74.224V74.2266C15.6654 74.226 15.6698 74.226 15.6732 74.2253C15.6765 74.226 15.6815 74.226 15.6846 74.2266V74.224C18.8144 73.8924 25.3929 72.1594 25.3929 72.1594C25.4429 58.743 22.0535 59.5116 22.0535 51.6202C22.0535 44.221 22.844 44.1359 23.3757 40.4907Z" fill="#FDD3AE"/>
<path opacity="0.098" d="M18.2684 18.9197C17.3234 19.9687 16.1373 20.6262 15.675 20.6363C15.2127 20.6262 14.0259 19.9687 13.0811 18.9197C13.0441 19.4191 13.0044 19.8947 12.9619 20.3091C13.3606 21.2606 14.3679 22.9639 15.6744 23.2474C16.9809 22.9639 17.9888 21.2606 18.3876 20.3091C18.345 19.8947 18.3053 19.4191 18.2684 18.9197Z" fill="#221E1F"/>
<path d="M15.6923 4.02283C15.6862 4.02293 15.6805 4.02352 15.6746 4.02352C15.6685 4.02352 15.6629 4.02293 15.6568 4.02283C11.0285 4.07565 9.35938 7.97641 9.35938 11.3481C9.35938 13.8695 10.1985 14.3677 10.8547 16.9507C11.4132 19.1487 14.9059 20.6327 15.6746 20.6327C16.4432 20.6327 19.9362 19.1487 20.4945 16.9507C21.1507 14.3677 21.9897 13.8695 21.9897 11.3481C21.9897 7.97641 20.3206 4.07565 15.6923 4.02283Z" fill="#FDD3AE"/>
<path d="M22.3784 10.9849C23.2406 10.7308 23.8654 10.5335 24.7179 10.2524C24.6305 9.3636 24.534 8.50343 24.4306 7.68627C24.0921 5.01129 23.1899 2.96924 21.4111 1.69439C20.0962 0.633813 18.2936 0.0538229 15.8035 0.1232C13.3139 0.0538229 11.5113 0.633813 10.1966 1.69439C8.41769 2.96924 7.56595 5.52904 7.17625 7.68627C6.88308 9.30939 6.72877 11.1097 6.63184 13.0052C7.62452 12.9664 7.73195 12.9397 8.72246 12.8654C8.67171 12.4639 9.17717 11.9349 9.17717 11.4224C9.17717 9.10463 10.5038 6.84542 11.9151 5.49832C12.6438 4.80197 22.1256 7.76555 22.3784 10.9849Z" fill="#9C4530"/>
<path d="M9.90013 11.6378C9.90013 11.6378 9.19179 10.8172 8.94064 11.4916C8.47622 12.7376 10.127 14.1196 10.1991 14.3677C10.2701 14.6158 9.90013 11.6378 9.90013 11.6378Z" fill="#FDD3AE"/>
<path d="M21.4497 11.6378C21.4497 11.6378 22.1579 10.8172 22.4092 11.4916C22.8735 12.7376 21.2228 14.1196 21.1507 14.3677C21.0795 14.6158 21.4497 11.6378 21.4497 11.6378Z" fill="#FDD3AE"/>
<path d="M22.5267 55.7594C21.2143 51.0625 22.7093 45.0635 23.3763 40.4907C23.3763 39.0105 24.7574 37.8295 24.0778 32.955C24.0478 32.7515 24.0198 32.5513 23.9848 32.3393C23.9848 32.3393 23.4924 29.5072 24.1084 25.128C23.5628 25.0904 23.5657 25.1243 22.6962 24.8373C22.5431 24.7866 22.3863 24.7325 22.2286 24.6763C22.2255 24.6773 22.2221 24.6828 22.2191 24.682C22.2191 24.682 22.2191 25.0221 22.2188 25.0221C21.7882 34.0151 17.0914 35.5461 15.7496 35.795C15.7241 35.7996 15.7023 35.7934 15.6852 35.7918V35.7901C15.6828 35.7907 15.6776 35.7907 15.6741 35.7911C15.6704 35.7907 15.6652 35.7907 15.6628 35.7901V35.7918C15.6457 35.7934 15.6239 35.7996 15.5984 35.795C14.2566 35.5461 9.55995 34.0151 9.12924 25.0221C9.12893 25.0221 9.12893 24.682 9.12893 24.682C9.12592 24.6828 9.12253 24.6773 9.11952 24.6763C8.96174 24.7325 8.80511 24.7866 8.65187 24.8373C7.78257 25.1243 7.78527 25.0904 7.23973 25.128C7.85576 29.5072 7.36312 32.3393 7.36312 32.3393C7.32826 32.5513 7.30019 32.7515 7.27034 32.955C6.59084 37.8295 7.97175 39.0105 7.97175 40.4907C8.3602 43.1536 10.2511 50.6428 8.8213 55.7594C8.08481 58.3976 6.70274 61.4526 6.16992 66.8288C10.393 69.3935 15.1563 73.9725 15.3832 74.1916C15.4789 74.2034 15.5727 74.2144 15.6628 74.224V74.2267C15.666 74.2261 15.6704 74.2261 15.6738 74.2254C15.6771 74.2261 15.682 74.2261 15.6852 74.2267V74.224C15.7754 74.2144 15.8692 74.2034 15.9648 74.1916C16.1918 73.9725 20.955 69.3935 25.1782 66.8288C24.6458 61.4558 23.2588 58.3819 22.5267 55.7594Z" fill="#689F38"/>
<path opacity="0.098" d="M24.0785 32.955C24.1115 35.1155 23.6043 39.3311 21.1863 40.2519C19.0183 41.0777 17.1502 39.9656 15.6748 39.9C14.1992 39.9656 12.3311 41.0777 10.1632 40.2519C7.74515 39.3311 7.23793 35.1155 7.27102 32.955C6.59151 37.8295 7.97242 39.0105 7.97242 40.4907C8.23131 42.2652 8.55113 43.6821 8.81149 45.521C8.80331 44.2465 8.90125 43.5393 9.31878 42.9891C10.4479 41.5013 14.8264 41.6325 15.6748 41.6588C16.5232 41.6325 20.9015 41.5013 22.0306 42.9891C22.4482 43.5393 22.5461 44.2465 22.538 45.521C22.7982 43.6821 23.1181 42.2652 23.377 40.4907C23.377 39.0105 24.7581 37.8295 24.0785 32.955Z" fill="#221E1F"/>
</svg>
