<svg width="31" height="149" viewBox="0 0 31 149" fill="none" xmlns="http://www.w3.org/2000/svg">
<path d="M24.9794 16.0017C24.8927 12.9999 24.7645 10.1282 24.3192 7.66163C23.9295 5.50431 23.0777 2.9446 21.2988 1.66965C19.9839 0.60908 18.1814 0.0291885 15.692 0.0984662C15.686 0.098268 15.6805 0.0987636 15.6744 0.0986645C15.6682 0.0987636 15.6629 0.098268 15.6565 0.0984662C13.1671 0.0291885 11.3645 0.60908 10.0497 1.66965C8.27086 2.9446 7.41911 5.50431 7.02941 7.66163C6.58401 10.1282 6.45596 12.9999 6.36914 16.0017C6.28004 19.0928 6.54199 24.2186 6.87727 26.3126C9.33212 25.7471 22.0164 25.7471 24.4712 26.3126C24.8065 24.2186 25.0685 19.0928 24.9794 16.0017Z" fill="#898989"/>
<path d="M21.2654 146.429C21.5179 148.144 19.9326 148.456 19.0476 148.541C18.3192 148.609 16.3311 149.317 16.2867 147.098C16.2706 146.324 17.0408 144.423 17.1894 142.258C17.3413 140.031 17.5957 137.881 17.6421 136.779C17.8433 132.075 16.8901 122.296 16.672 115.273C16.5025 109.815 16.8661 106.621 17.0077 103.74C17.124 101.371 16.2969 99.6668 16.5536 95.6493C17.403 82.3595 16.2631 80.1279 15.9544 74.2397C15.8064 71.4138 15.7928 64.277 21.0076 63.4624C24.7134 62.8835 25.4387 67.9602 25.4444 70.6238C25.4652 80.3193 22.2551 91.0547 22.3874 95.1167C22.5203 99.1991 21.8726 101.093 21.9222 103.707C21.9878 107.163 22.5641 112.041 22.0254 116.649C21.312 122.752 20.0699 132.594 20.1278 137.981C20.1343 138.557 20.1734 140.828 20.2755 141.887C20.4588 143.794 21.1003 145.308 21.2654 146.429Z" fill="#D9D9D9"/>
<path d="M29.4812 51.4606C29.5579 52.5301 28.7564 53.4577 27.8988 53.744C27.5062 53.8745 26.377 54.1928 26.1656 51.7422C25.5279 44.3529 23.8626 33.6379 23.2593 32.0234C22.6642 30.4317 22.8791 29.1693 22.8972 28.3907C23.4783 24.1885 26.556 23.8311 27.7788 28.2137C28.0515 29.1893 28.9792 32.4352 28.8754 37.021C28.7618 42.0034 29.1487 46.8232 29.4812 51.4606Z" fill="#D9D9D9"/>
<path d="M30.8793 72.3765C30.922 71.1487 30.2703 70.5105 29.8142 70.3575C29.1416 70.1328 29.0355 70.3967 28.5441 71.5585C28.2053 72.8774 27.2913 72.6856 26.6785 76.5446C26.514 77.5819 26.3348 78.5851 26.2306 79.4974C26.2195 79.5864 26.7467 79.8349 27.0051 78.8516C27.6306 76.4788 27.8236 76.8224 28.1832 75.9998C28.0912 77.0503 28.2987 78.0542 27.4604 80.5399C26.9305 82.1113 26.2657 82.993 26.6754 83.6315C27.0856 84.2694 29.2901 81.9306 30.426 77.7506C30.8573 76.1666 30.6202 74.6716 30.8793 72.3765Z" fill="#D9D9D9"/>
<path d="M28.5437 71.5585C28.5437 71.5585 28.6064 73.3871 29.5893 73.5267C30.0848 73.5972 30.7875 73.2383 30.8877 72.0856C30.9501 71.3627 30.9116 70.516 30.9282 69.6238C31.1427 58.3202 30.734 55.3651 29.5963 51.1202C29.3149 50.0728 28.4521 48.6283 27.4257 49.226C26.2447 49.9137 26.2119 51.1436 26.2332 52.2789C26.3524 58.6319 27.7462 62.2412 28.4949 70.0697C28.5582 70.7333 28.5671 71.1958 28.5437 71.5585Z" fill="#D9D9D9"/>
<path d="M10.0844 146.429C9.83193 148.144 11.4172 148.456 12.3022 148.541C13.0306 148.609 15.0186 149.317 15.0631 147.098C15.0792 146.324 14.309 144.423 14.1605 142.258C14.0085 140.031 13.7542 137.881 13.7077 136.779C13.5065 132.075 14.4597 122.296 14.6778 115.273C14.8473 109.815 14.4836 106.621 14.3421 103.739C14.2258 101.371 15.0529 99.6667 14.7962 95.6492C13.9468 82.3594 15.0867 80.1278 15.3954 74.2396C15.5433 71.4137 15.5571 64.2769 10.3422 63.4623C6.63639 62.8834 5.91116 67.9601 5.90537 70.6237C5.88478 80.3192 9.09466 91.0546 8.9624 95.1166C8.82952 99.199 9.47718 101.093 9.42767 103.707C9.36211 107.163 8.7858 112.041 9.32448 116.649C10.0378 122.752 11.2799 132.594 11.2219 137.981C11.2155 138.557 11.1763 140.828 11.0743 141.887C10.8909 143.794 10.2495 145.308 10.0844 146.429Z" fill="#D9D9D9"/>
<path d="M1.86739 51.4606C1.79074 52.5301 2.5924 53.4577 3.44974 53.744C3.84235 53.8745 4.97162 54.1928 5.18301 51.7422C5.82071 44.3529 7.48596 33.6379 8.08934 32.0234C8.68448 30.4317 8.46947 29.1693 8.4515 28.3907C7.87048 24.1885 4.79262 23.8311 3.56981 28.2137C3.29719 29.1893 2.36937 32.4352 2.47317 37.021C2.58684 42.0034 2.19993 46.8232 1.86739 51.4606Z" fill="#D9D9D9"/>
<path d="M0.468781 72.3765C0.426211 71.1486 1.07787 70.5104 1.53396 70.3574C2.2066 70.1327 2.31264 70.3967 2.80405 71.5584C3.14283 72.8774 4.05678 72.6855 4.66973 76.5445C4.8343 77.5818 5.01345 78.585 5.11741 79.4973C5.12867 79.5863 4.6014 79.8349 4.34305 78.8515C3.71745 76.4787 3.52458 76.8224 3.16504 75.9997C3.25697 77.0502 3.04952 78.0542 3.88781 80.5399C4.41762 82.1112 5.0824 82.9929 4.67281 83.6315C4.26261 84.2694 2.05807 81.9306 0.922091 77.7505C0.490837 76.1665 0.727827 74.6716 0.468781 72.3765Z" fill="#D9D9D9"/>
<path d="M2.80466 71.5585C2.80466 71.5585 2.74211 73.3871 1.75914 73.5267C1.26357 73.5972 0.560779 73.2383 0.460523 72.0856C0.398287 71.3627 0.43677 70.516 0.420035 69.6238C0.205642 58.3202 0.6143 55.3651 1.75213 51.1202C2.03354 50.0728 2.89612 48.6283 3.92266 49.226C5.10375 49.9137 5.13637 51.1436 5.11517 52.2789C4.99594 58.6319 3.60223 62.2412 2.8534 70.0697C2.79016 70.7333 2.78129 71.1958 2.80466 71.5585Z" fill="#D9D9D9"/>
<path d="M23.3757 40.5275C23.5966 39.0129 24.8734 37.7724 23.9843 32.3762L26.6965 25.7673C24.8778 24.8741 24.4567 25.4555 22.6957 24.8741C20.9983 24.3139 18.9354 23.4497 18.5283 21.394C18.2339 19.9109 18.0163 14.4398 18.0163 14.4398L15.6846 14.4285H15.6735H15.6623L13.3306 14.4398C13.3306 14.4398 13.113 19.9109 12.8187 21.394C12.4116 23.4497 10.3486 24.3139 8.65129 24.8741C6.89026 25.4555 6.46895 24.8741 4.65039 25.7673L7.36254 32.3762C6.47343 37.7724 7.7503 39.0129 7.97117 40.5275C8.50291 44.1728 9.29347 44.2578 9.29347 51.6571C9.29347 59.5485 5.90405 58.7799 5.95395 72.1963C5.95395 72.1963 12.5325 73.9293 15.6623 74.2608V74.2635C15.6654 74.2629 15.6698 74.2629 15.6732 74.2622C15.6765 74.2629 15.6815 74.2629 15.6846 74.2635V74.2608C18.8144 73.9293 25.3929 72.1963 25.3929 72.1963C25.4429 58.7799 22.0535 59.5485 22.0535 51.6571C22.0535 44.2578 22.844 44.1728 23.3757 40.5275Z" fill="#D9D9D9"/>
<path opacity="0.098" d="M18.2684 18.9565C17.3234 20.0055 16.1373 20.6631 15.675 20.6731C15.2127 20.6631 14.0259 20.0055 13.0811 18.9565C13.0441 19.456 13.0044 19.9316 12.9619 20.346C13.3606 21.2974 14.3679 23.0007 15.6744 23.2843C16.9809 23.0007 17.9888 21.2974 18.3876 20.346C18.345 19.9316 18.3053 19.456 18.2684 18.9565Z" fill="#221E1F"/>
<path d="M15.6923 4.05969C15.6862 4.05979 15.6805 4.06039 15.6746 4.06039C15.6685 4.06039 15.6629 4.05979 15.6568 4.05969C11.0285 4.11252 9.35938 8.01328 9.35938 11.385C9.35938 13.9063 10.1985 14.4046 10.8547 16.9876C11.4132 19.1855 14.9059 20.6696 15.6746 20.6696C16.4432 20.6696 19.9362 19.1855 20.4945 16.9876C21.1507 14.4046 21.9897 13.9063 21.9897 11.385C21.9897 8.01328 20.3206 4.11252 15.6923 4.05969Z" fill="#D9D9D9"/>
<path d="M22.3784 11.0218C23.2406 10.7677 23.8654 10.5704 24.7179 10.2893C24.6305 9.40046 24.534 8.54029 24.4306 7.72313C24.0921 5.04816 23.1899 3.0061 21.4111 1.73125C20.0962 0.670679 18.2936 0.0906882 15.8035 0.160065C13.3139 0.0906882 11.5113 0.670679 10.1966 1.73125C8.41769 3.0061 7.56595 5.56591 7.17625 7.72313C6.88308 9.34625 6.72877 11.1466 6.63184 13.0421C7.62452 13.0033 7.73195 12.9765 8.72246 12.9023C8.67171 12.5007 9.17717 11.9718 9.17717 11.4593C9.17717 9.14149 10.5038 6.88228 11.9151 5.53518C12.6438 4.83884 22.1256 7.80242 22.3784 11.0218Z" fill="#898989"/>
<path d="M9.90013 11.6747C9.90013 11.6747 9.19179 10.854 8.94064 11.5285C8.47622 12.7745 10.127 14.1565 10.1991 14.4046C10.2701 14.6526 9.90013 11.6747 9.90013 11.6747Z" fill="#D9D9D9"/>
<path d="M21.4497 11.6747C21.4497 11.6747 22.1579 10.854 22.4092 11.5285C22.8735 12.7745 21.2228 14.1565 21.1507 14.4046C21.0795 14.6526 21.4497 11.6747 21.4497 11.6747Z" fill="#D9D9D9"/>
<path d="M22.5267 55.7963C21.2143 51.0994 22.7093 45.1004 23.3763 40.5275C23.3763 39.0473 24.7574 37.8663 24.0778 32.9918C24.0478 32.7884 24.0198 32.5882 23.9848 32.3762C23.9848 32.3762 23.4924 29.5441 24.1084 25.1648C23.5628 25.1273 23.5657 25.1612 22.6962 24.8741C22.5431 24.8235 22.3863 24.7694 22.2286 24.7132C22.2255 24.7142 22.2221 24.7196 22.2191 24.7188C22.2191 24.7188 22.2191 25.059 22.2188 25.059C21.7882 34.052 17.0914 35.583 15.7496 35.8318C15.7241 35.8365 15.7023 35.8302 15.6852 35.8287V35.827C15.6828 35.8276 15.6776 35.8276 15.6741 35.828C15.6704 35.8276 15.6652 35.8276 15.6628 35.827V35.8287C15.6457 35.8302 15.6239 35.8365 15.5984 35.8318C14.2566 35.583 9.55995 34.052 9.12924 25.059C9.12893 25.059 9.12893 24.7188 9.12893 24.7188C9.12592 24.7196 9.12253 24.7142 9.11952 24.7132C8.96174 24.7694 8.80511 24.8235 8.65187 24.8741C7.78257 25.1612 7.78527 25.1273 7.23973 25.1648C7.85576 29.5441 7.36312 32.3762 7.36312 32.3762C7.32826 32.5882 7.30019 32.7884 7.27034 32.9918C6.59084 37.8663 7.97175 39.0473 7.97175 40.5275C8.3602 43.1904 10.2511 50.6797 8.8213 55.7963C8.08481 58.4345 6.70274 61.4895 6.16992 66.8657C10.393 69.4303 15.1563 74.0094 15.3832 74.2284C15.4789 74.2402 15.5727 74.2512 15.6628 74.2608V74.2635C15.666 74.2629 15.6704 74.2629 15.6738 74.2622C15.6771 74.2629 15.682 74.2629 15.6852 74.2635V74.2608C15.7754 74.2512 15.8692 74.2402 15.9648 74.2284C16.1918 74.0094 20.955 69.4303 25.1782 66.8657C24.6458 61.4926 23.2588 58.4187 22.5267 55.7963Z" fill="#D9D9D9"/>
<path opacity="0.098" d="M24.0785 32.9918C24.1115 35.1524 23.6043 39.3679 21.1863 40.2888C19.0183 41.1146 17.1502 40.0024 15.6748 39.9368C14.1992 40.0024 12.3311 41.1146 10.1632 40.2888C7.74515 39.3679 7.23793 35.1524 7.27102 32.9918C6.59151 37.8663 7.97242 39.0473 7.97242 40.5275C8.23131 42.3021 8.55113 43.719 8.81149 45.5578C8.80331 44.2834 8.90125 43.5762 9.31878 43.026C10.4479 41.5382 14.8264 41.6694 15.6748 41.6956C16.5232 41.6694 20.9015 41.5382 22.0306 43.026C22.4482 43.5762 22.5461 44.2834 22.538 45.5578C22.7982 43.719 23.1181 42.3021 23.377 40.5275C23.377 39.0473 24.7581 37.8663 24.0785 32.9918Z" fill="#221E1F"/>
</svg>
