<svg width="45" height="149" viewBox="0 0 45 149" fill="none" xmlns="http://www.w3.org/2000/svg">
<path d="M32.9513 16.5298C32.8646 13.528 32.8008 11.2169 32.2228 8.77773C30.3236 0.766784 26.6342 0.0559682 22.751 0.0616175C18.8681 0.0559682 15.1784 0.766784 13.2795 8.77773C12.7013 11.2169 12.6374 13.528 12.5507 16.5298C12.4617 19.6209 12.2155 22.7433 12.5507 24.8373C14.8424 24.3092 22.2506 25.8886 22.751 25.0532C23.2516 25.8886 30.6596 24.3092 32.9513 24.8373C33.2869 22.7433 33.0407 19.6209 32.9513 16.5298Z" fill="#9C4530"/>
<path d="M35.8321 54.2906C33.8195 48.394 34.6499 43.4373 34.9336 42.7441C36.4636 39.002 35.1629 36.8676 33.769 33.9263L35.6 26.0231C34.3088 25.1112 27.3991 24.5183 26.5237 20.6251C26.1895 19.142 25.3906 14.3936 25.3906 14.3936H20.1099C20.1099 14.3936 19.311 19.142 18.9767 20.6251C18.1015 24.5183 11.1917 25.1112 9.90049 26.0231L11.7315 33.9263C10.3379 36.8676 9.03688 39.002 10.5671 42.7441C10.8505 43.4373 11.6811 48.394 9.66858 54.2906C8.46472 57.8179 6.97019 64.8416 7.15297 71.4137C7.31096 77.098 7.34161 72.7715 22.7501 74.2138C38.1586 72.7715 38.1893 77.098 38.3473 71.4137C38.5301 64.8416 37.0358 57.8179 35.8321 54.2906Z" fill="#FDD3AE"/>
<path opacity="0.098" d="M26.3218 18.5703C25.1345 19.4958 23.2714 20.6119 22.7514 20.6345C22.2317 20.6119 20.3681 19.4958 19.1809 18.5703C19.075 19.1091 18.9105 19.9282 18.8271 20.3066C19.5106 21.3191 21.3349 22.9745 22.7512 23.2424C24.1677 22.9745 25.992 21.3191 26.6756 20.3066C26.5922 19.9282 26.4279 19.1091 26.3218 18.5703Z" fill="#221E1F"/>
<path d="M29.9326 146.483C30.2191 148.198 27.5662 148.419 26.5612 148.504C25.7339 148.572 23.4763 149.28 23.4259 147.061C23.4076 146.287 24.2823 144.386 24.4509 142.222C24.6233 139.994 24.9123 137.844 24.965 136.743C25.1935 132.038 23.6502 122.258 23.4026 115.235C23.21 109.776 24.0838 106.584 24.2446 103.703C24.3766 101.334 24.0838 99.6233 23.729 95.6124C23.0023 87.4028 22.7056 79.5987 22.7517 74.2232C22.7761 71.3911 23.0692 65.3445 28.787 63.4255C37.7602 60.4141 38.3211 69.5478 38.3235 72.2114C38.3364 83.0309 34.2111 90.7898 33.8586 94.8364C33.5672 98.1858 33.2338 100.564 33.4685 103.165C33.7018 105.766 34.0221 112.01 33.5669 116.411C32.9328 122.54 30.2662 133.002 29.1844 138.25C28.9426 139.422 28.3834 141.006 28.4991 142.065C28.7073 143.972 29.7451 145.362 29.9326 146.483Z" fill="#FDD3AE"/>
<path d="M42.9743 52.296C43.1621 53.3928 40.9405 54.5359 39.9591 54.9452C39.5092 55.132 37.8285 55.6241 37.0989 53.1955C34.1219 43.291 33.3787 34.669 32.5223 33.0777C31.6774 31.5088 31.8147 30.1739 31.7646 29.366C31.9498 26.6286 33.0352 25.5313 34.9957 25.771C37.0824 26.0261 40.4378 29.2298 41.8841 37.0542C42.8221 42.1294 42.1603 47.5404 42.9743 52.296Z" fill="#FDD3AE"/>
<path d="M44.7419 71.671C44.5874 70.4542 42.062 70.8769 41.5275 70.8349C40.7402 70.7739 40.505 71.0852 40.1479 72.3433C39.987 73.7201 39.0962 73.7216 39.0477 77.6593C39.0348 78.7177 38.9999 79.7459 39.0342 80.6669C39.0365 80.7572 39.6657 80.8764 39.7919 79.8489C40.0994 77.3682 40.3711 77.6602 40.6367 76.7669C40.7073 77.8203 41.1041 78.7575 40.5781 81.3994C40.2456 83.0695 39.6491 84.0937 40.2114 84.6239C40.7742 85.1535 43.1021 82.4808 43.6816 78.1041C43.9019 76.445 44.8306 73.9875 44.7419 71.671Z" fill="#FDD3AE"/>
<path d="M41.4911 73.3306C42.0572 73.3386 44.6451 72.7522 44.7431 71.5974C44.8038 70.8733 44.701 70.0257 44.7549 69.1351C45.4931 56.8988 44.3356 54.4324 42.5998 50.9455C42.1188 49.9794 39.8784 48.5191 38.697 49.0761C36.957 49.8954 37.0584 51.6124 37.0986 52.7471C37.322 59.0967 39.559 63.5154 40.5176 71.3278C40.5992 71.9899 40.9252 73.3213 41.4911 73.3306Z" fill="#FDD3AE"/>
<path d="M15.5707 146.483C15.2839 148.198 17.937 148.419 18.9421 148.504C19.7694 148.572 22.0269 149.28 22.0772 147.061C22.0956 146.287 21.2209 144.386 21.0522 142.222C20.8798 139.994 20.5909 137.844 20.5381 136.743C20.3096 132.038 21.8529 122.258 22.1005 115.235C22.2931 109.776 21.4193 106.584 21.2586 103.703C21.1265 101.334 21.4193 99.6233 21.7743 95.6124C22.5008 87.4028 22.7976 79.5987 22.7514 74.2232C22.7271 71.3911 22.434 65.3445 16.7163 63.4255C7.74259 60.4141 7.18208 69.5478 7.17972 72.2114C7.16684 83.0309 11.2921 90.7898 11.6447 94.8364C11.9359 98.1858 12.2693 100.564 12.0347 103.165C11.8015 105.766 11.4812 112.01 11.9364 116.411C12.5704 122.54 15.2369 133.002 16.319 138.25C16.5605 139.422 17.1198 141.006 17.004 142.065C16.7958 143.972 15.7582 145.362 15.5707 146.483Z" fill="#FDD3AE"/>
<path d="M2.52778 52.296C2.34019 53.3928 4.5618 54.5359 5.54347 54.9452C5.99301 55.132 7.67391 55.6241 8.40371 53.1955C11.3803 43.291 12.1236 34.669 12.9801 33.0777C13.8248 31.5088 13.6877 30.1739 13.7376 29.366C13.5526 26.6286 12.4671 25.5313 10.5067 25.771C8.42 26.0261 5.06459 29.2298 3.61823 37.0542C2.68026 42.1294 3.34227 47.5404 2.52778 52.296Z" fill="#FDD3AE"/>
<path d="M0.759881 71.671C0.914721 70.4542 3.43962 70.8769 3.97385 70.8349C4.76145 70.7739 4.99668 71.0852 5.35374 72.3433C5.51471 73.7201 6.40574 73.7216 6.45417 77.6593C6.46687 78.7177 6.50146 79.7459 6.46774 80.6669C6.46538 80.7572 5.83595 80.8764 5.70975 79.8489C5.40235 77.3682 5.1305 77.6602 4.8647 76.7669C4.79446 77.8203 4.39764 78.7575 4.92355 81.3994C5.25609 83.0695 5.85268 84.0937 5.29033 84.6239C4.72764 85.1535 2.3998 82.4808 1.82029 78.1041C1.59994 76.445 0.670989 73.9875 0.759881 71.671Z" fill="#FDD3AE"/>
<path d="M4.01058 73.3306C3.44421 73.3386 0.856429 72.7522 0.758691 71.5974C0.697999 70.8733 0.800641 70.0257 0.746955 69.1351C0.00884092 56.8988 1.16611 54.4324 2.90201 50.9455C3.38273 49.9794 5.62335 48.5191 6.80478 49.0761C8.5448 49.8954 8.44303 51.6124 8.40301 52.7471C8.1796 59.0967 5.94266 63.5154 4.98367 71.3278C4.90266 71.9899 4.5766 73.3213 4.01058 73.3306Z" fill="#FDD3AE"/>
<path d="M29.2113 11.0823C29.2113 7.71201 27.3752 4.07885 22.751 4.02295C18.127 4.07885 16.2906 7.71201 16.2906 11.0823C16.2906 13.6038 16.0324 15.1155 17.1142 16.9461C17.9923 18.4317 19.0233 18.8371 19.8472 19.4348C21.0194 20.2854 22.1835 20.5945 22.751 20.6303C23.3185 20.5945 24.4826 20.2854 25.6548 19.4348C26.4789 18.8371 27.5099 18.4317 28.388 16.9461C29.4696 15.1155 29.2113 13.6038 29.2113 11.0823Z" fill="#FDD3AE"/>
<path d="M29.3317 10.9233C30.1939 10.6692 30.8188 10.4719 31.6711 10.1908C31.5837 9.302 31.4874 8.44183 31.3839 7.62477C31.0452 4.94969 30.143 2.90774 28.3642 1.63279C27.0494 0.572215 25.2468 -0.00767672 22.7567 0.061601C20.2671 -0.00767672 18.4646 0.572215 17.1497 1.63279C15.3709 2.90774 14.5193 5.46744 14.1296 7.62477C13.8364 9.24779 13.6819 11.0481 13.585 12.9436C14.5778 12.9049 14.6853 12.8782 15.6757 12.8038C15.625 12.4023 16.1304 11.8733 16.1304 11.3609C16.1304 9.04303 17.4571 6.78382 18.8684 5.43672C19.5972 4.74037 29.0789 7.70405 29.3317 10.9233Z" fill="#9C4530"/>
<path d="M29.0052 11.6378C29.0052 11.6378 29.7136 10.8172 29.9647 11.4916C30.4292 12.7376 28.7784 14.1196 28.7063 14.3677C28.6353 14.6158 29.0052 11.6378 29.0052 11.6378Z" fill="#FDD3AE"/>
<path d="M16.4968 11.6378C16.4968 11.6378 15.7885 10.8172 15.5373 11.4916C15.073 12.7376 16.7236 14.1196 16.7957 14.3677C16.8669 14.6158 16.4968 11.6378 16.4968 11.6378Z" fill="#FDD3AE"/>
<path d="M38.1495 65.8628C38.1495 64.2979 36.9312 57.8625 36.1448 55.2656C35.8786 54.5875 35.7469 54.2517 35.6536 53.7443C33.8713 48.0903 34.6596 43.4157 34.9344 42.7441C36.4644 39.002 34.6939 35.8805 33.7698 33.9263C32.8459 31.9719 34.3641 25.4945 34.3641 25.4945C33.6074 25.2262 31.8666 24.7596 31.777 24.7463C28.6142 35.1205 23.7796 35.8414 22.7512 35.792C21.7227 35.8414 16.8881 35.1205 13.7251 24.7463C13.6356 24.7596 11.8948 25.2262 11.138 25.4945C11.138 25.4945 12.6563 31.9719 11.7324 33.9263C10.8084 35.8805 9.03773 39.002 10.5679 42.7441C10.8426 43.4157 11.6308 48.0903 9.84871 53.7443C9.75535 54.2517 9.62355 54.5875 9.35722 55.2656C8.5712 57.8625 7.35254 64.2979 7.35254 65.8628C7.84561 66.0413 11.1286 67.3596 14.772 70.1361C18.4149 72.9123 21.3348 74.9203 22.7467 74.9283C22.748 74.9283 22.7498 74.9286 22.7511 74.9286C22.7525 74.9286 22.7542 74.929 22.7555 74.929C24.1674 74.9209 27.0872 72.9123 30.7304 70.1361C34.3737 67.3596 37.6567 66.0413 38.1495 65.8628Z" fill="#689F38"/>
<path opacity="0.098" d="M34.9344 42.7442C34.9788 42.6354 35.0198 42.5271 35.059 42.4192C35.0764 42.2955 35.0929 42.1676 35.1112 42.0454C35.1112 42.0454 35.1524 41.9974 35.2221 41.9152C36.2021 38.5419 34.6247 35.7345 33.7697 33.9264C34.6754 36.4871 35.8727 40.3844 32.5623 41.4199C28.4839 42.6957 26.0396 40.9748 22.7777 40.9098H22.7244C19.4624 40.9748 17.0183 42.6957 12.9397 41.4199C9.62934 40.3844 10.8266 36.4871 11.7323 33.9264C10.8775 35.7345 9.29995 38.5419 10.28 41.9152C10.3496 41.9974 10.3911 42.0454 10.3911 42.0454C10.409 42.1676 10.4255 42.2955 10.443 42.4192C10.4822 42.5271 10.5233 42.6354 10.5678 42.7442C10.8425 43.4159 11.6307 48.0904 9.84863 53.7444C12.3863 48.953 10.8266 45.2756 13.141 45.2756C16.1703 45.2756 18.0718 43.0642 22.7509 42.7073C27.4301 43.0642 29.3317 45.2756 32.3613 45.2756C34.6754 45.2756 33.116 48.953 35.6536 53.7444C33.8712 48.0904 34.6595 43.4159 34.9344 42.7442Z" fill="#221E1F"/>
</svg>
