<?xml version="1.0" standalone="no"?>
<!-- Generator: Adobe Fireworks 10, Export SVG Extension by Aaron Beall (http://fireworks.abeall.com) . Version: 0.6.1  -->
<!DOCTYPE svg PUBLIC "-//W3C//DTD SVG 1.1//EN" "http://www.w3.org/Graphics/SVG/1.1/DTD/svg11.dtd">
<svg id="Untitled-Str%E1nka%201" viewBox="0 0 68 150" style="background-color:#ffffff00" version="1.1"
	xmlns="http://www.w3.org/2000/svg" xmlns:xlink="http://www.w3.org/1999/xlink" xml:space="preserve"
	x="0px" y="0px" width="68px" height="150px"
>
	<g id="Vrstva%201">
		<g id="3">
			<g>
				<g>
					<path d="M 35.5132 96.4523 C 34.7876 89.2406 34.4358 82.34 34.392 77.0944 L 34.392 74.9044 C 34.392 74.8909 34.392 74.8763 34.392 74.8627 C 34.42 72.0042 34.7561 65.9007 41.3157 63.9637 C 51.6101 60.9241 58.6317 66.6728 58.979 69.3392 C 60.4509 80.6422 53.4946 94.0124 52.2852 96.4053 C 50.4907 99.9573 49.3496 102.7811 49.2244 104.0567 C 49.0184 106.1563 50.4988 113.9401 49.9766 118.382 C 49.249 124.5686 45.2887 133.7283 44.0471 139.0256 C 43.7701 140.2083 43.1285 141.8075 43.2615 142.8766 C 43.5002 144.8014 44.6904 146.2045 44.9055 147.3359 C 45.2346 149.0669 39.9153 149.7547 38.7622 149.8398 C 38.0623 149.8908 36.4729 150.2889 35.6616 149.598 L 35.6616 146.5022 C 35.9373 145.6448 36.2433 144.6066 36.3413 143.4986 C 36.5392 141.2499 36.8706 139.0803 36.9312 137.9683 C 37.1934 133.2199 35.4229 123.3476 35.1387 116.2586 C 34.9178 110.749 35.9203 107.5271 36.1046 104.6184 C 36.2561 102.2275 35.9203 100.5009 35.5132 96.4523 Z" fill="#fdd3ae"/>
					<g id="right%20hand">
						<path d="M 65.6425 48.7006 C 65.7546 49.8224 64.0876 51.5446 63.1353 52.2694 C 62.699 52.6009 60.1912 54.8931 58.6604 52.7969 C 52.4158 44.2485 49.8186 34.933 48.4009 33.6868 C 47.0027 32.4583 46.7511 31.125 46.4531 30.3628 C 45.8315 27.6611 46.6906 26.238 48.9109 25.8094 C 51.2747 25.3533 56.5535 25.8637 60.4945 32.9216 C 63.0508 37.4994 65.249 44.7758 65.6425 48.7006 Z" fill="#fdd3ae"/>
						<path d="M 66.4797 69.6351 C 66.3632 68.3998 63.4485 68.6853 62.8386 68.6132 C 61.9395 68.5079 61.6543 68.8087 61.1824 70.0571 C 59.9081 71.3881 59.5516 71.9832 59.3 75.9502 C 59.2324 77.0165 59.2126 77.6467 59.4911 78.3864 C 59.5232 78.4719 60.2043 78.6332 60.4005 77.6041 C 60.7252 75.908 60.9667 75.5144 61.1984 75.1533 C 61.3036 74.9896 61.5571 75.0485 61.5785 75.2413 C 61.6732 76.1075 62.1399 77.2352 61.2238 79.211 C 60.4958 80.7807 60.0251 81.8756 60.6431 82.4417 C 61.2612 83.0067 65.291 80.1436 66.1731 75.7635 C 66.5085 74.1031 66.4661 71.9755 66.4797 69.6351 Z" fill="#fdd3ae"/>
						<path d="M 62.6719 71.1272 C 63.3206 71.1668 66.3152 70.7198 66.4846 69.561 C 66.5901 68.8344 66.3892 67.9504 66.6208 67.0792 C 68.2693 60.8827 68.6372 55.8585 66.6304 50.0891 C 65.3181 46.3172 62.0608 46.0233 60.6792 46.5191 C 58.6445 47.2481 58.6757 48.9848 58.6648 50.131 C 58.6047 56.545 60.1646 60.3065 61.6566 69.0538 C 61.7703 69.719 62.0239 71.0863 62.6719 71.1272 Z" fill="#fdd3ae"/>
					</g>
				</g>
				<g>
					<path d="M 33.2708 96.4523 C 33.9958 89.2406 34.3477 82.34 34.392 77.0944 L 34.392 74.9044 C 34.3916 74.8909 34.3916 74.8763 34.3916 74.8627 C 34.3638 72.0042 34.0277 65.9007 27.4678 63.9637 C 17.1733 60.9241 10.1519 66.6728 9.8048 69.3392 C 8.333 80.6422 15.2893 94.0124 16.4983 96.4053 C 18.2932 99.9573 19.434 102.7811 19.5591 104.0567 C 19.7651 106.1563 18.2852 113.9401 18.8073 118.382 C 19.5344 124.5686 23.4949 133.7283 24.7363 139.0256 C 25.0134 140.2083 25.655 141.8075 25.5221 142.8766 C 25.2832 144.8014 24.0931 146.2045 23.8781 147.3359 C 23.549 149.0669 28.8687 149.7547 30.0212 149.8398 C 30.7214 149.8908 32.3109 150.2889 33.1219 149.598 L 33.1219 146.5022 C 32.8467 145.6448 32.5405 144.6066 32.4425 143.4986 C 32.2444 141.2499 31.9132 139.0803 31.8527 137.9683 C 31.5906 133.2199 33.3611 123.3476 33.6448 116.2586 C 33.866 110.749 32.8633 107.5271 32.6792 104.6184 C 32.5277 102.2275 32.8633 100.5009 33.2708 96.4523 Z" fill="#fdd3ae"/>
					<g id="right%20hand2">
						<path d="M 3.1414 48.7006 C 3.0288 49.8224 4.6958 51.5446 5.6482 52.2694 C 6.085 52.6009 8.5923 54.8931 10.1234 52.7969 C 16.3677 44.2485 18.9652 34.933 20.3826 33.6868 C 21.7811 32.4583 22.0327 31.125 22.3308 30.3628 C 22.952 27.6611 22.093 26.238 19.8726 25.8094 C 17.5088 25.3533 12.2301 25.8637 8.2891 32.9216 C 5.7328 37.4994 3.5344 44.7758 3.1414 48.7006 Z" fill="#fdd3ae"/>
						<path d="M 2.304 69.6351 C 2.4207 68.3998 5.3351 68.6853 5.9448 68.6132 C 6.8445 68.5079 7.1296 68.8087 7.6013 70.0571 C 8.8755 71.3881 9.2319 71.9832 9.4835 75.9502 C 9.5511 77.0165 9.5712 77.6467 9.2925 78.3864 C 9.2603 78.4719 8.5791 78.6332 8.3833 77.6041 C 8.0583 75.908 7.8169 75.5144 7.5852 75.1533 C 7.4802 74.9896 7.2263 75.0485 7.2053 75.2413 C 7.1104 76.1075 6.6436 77.2352 7.5598 79.211 C 8.2876 80.7807 8.7588 81.8756 8.1409 82.4417 C 7.5226 83.0067 3.4924 80.1436 2.6105 75.7635 C 2.2753 74.1031 2.3176 71.9755 2.304 69.6351 Z" fill="#fdd3ae"/>
						<path d="M 6.1116 71.1272 C 5.4629 71.1668 2.4688 70.7198 2.299 69.561 C 2.1934 68.8344 2.3947 67.9504 2.1626 67.0792 C 0.5142 60.8827 0.1462 55.8585 2.1536 50.0891 C 3.4655 46.3172 6.7227 46.0233 8.1042 46.5191 C 10.1389 47.2481 10.1079 48.9848 10.1187 50.131 C 10.1792 56.545 8.619 60.3065 7.127 69.0538 C 7.0132 69.719 6.7595 71.0863 6.1116 71.1272 Z" fill="#fdd3ae"/>
					</g>
				</g>
			</g>
			<g>
				<path d="M 44.3495 10.6165 C 43.6842 3.4913 40.7412 -0.0001 34.392 0.0056 C 28.0425 -0.0001 25.0996 3.4913 24.4341 10.6165 C 24.0059 15.201 23.4692 22.038 23.1279 25.4828 C 25.451 24.9498 33.8846 26.0748 34.3916 25.2316 L 34.392 25.2316 L 34.392 25.2316 C 34.8992 26.0748 43.3325 24.9498 45.6556 25.4828 C 45.3145 22.038 44.7781 15.201 44.3495 10.6165 Z" fill="#9c4530"/>
				<path d="M 57.9421 63.0981 C 56.7029 59.5262 56.0823 58.2421 56.0823 57.9958 C 56.0823 57.1799 56.0823 57.1799 56.0823 54.5125 C 56.0823 50.0485 53.7195 48.2565 54.8252 46.6522 C 59.0714 40.4909 54.3459 35.2186 52.7472 32.2497 L 51.3977 25.7645 C 49.9164 24.8439 41.028 24.5903 40.0238 20.6605 C 39.6403 19.1635 39.6355 14.4606 39.6355 14.4606 L 34.392 14.472 L 29.1483 14.4606 C 29.1483 14.4606 29.1433 19.1635 28.7598 20.6605 C 27.7556 24.5903 18.8672 24.8439 17.3857 25.7645 L 16.0366 32.2497 C 14.4376 35.2186 9.7124 40.4909 13.9587 46.6522 C 15.0643 48.2565 12.7017 50.0485 12.7017 54.5125 C 12.7017 57.1799 12.7017 57.1799 12.7017 57.9958 C 12.7017 58.2421 12.0806 59.5262 10.8418 63.0981 C 9.6012 66.674 9.7124 69.3392 9.795 71.4936 C 10.0151 77.2299 16.7148 73.3975 34.392 74.8533 C 52.0687 73.3975 58.7683 77.2299 58.9885 71.4936 C 59.0714 69.3392 59.1824 66.674 57.9421 63.0981 Z" fill="#fdd3ae"/>
				<path d="M 57.9421 63.0981 C 56.7029 59.5262 56.0823 58.2421 56.0823 57.9958 C 56.0823 57.1799 56.0823 57.1799 56.0823 54.5125 C 56.0823 50.0485 53.7195 48.2565 54.8252 46.6522 C 59.0714 40.4909 54.3459 35.2186 52.7472 32.2497 L 51.3977 25.7645 C 50.6483 25.2985 48.0017 25.0029 45.4398 24.3157 C 45.0415 34.0525 36.3386 36.1195 34.4971 36.0712 L 34.4968 36.0712 L 34.2867 36.0712 L 34.2864 36.0712 C 32.4448 36.1195 23.7424 34.0525 23.3438 24.3157 C 20.7821 25.0029 18.1353 25.2985 17.3857 25.7645 L 16.0366 32.2497 C 14.4376 35.2186 9.7124 40.4909 13.9587 46.6522 C 15.0643 48.2565 12.7017 50.0485 12.7017 54.5125 C 12.7017 57.1799 12.7017 57.1799 12.7017 57.9958 C 12.7017 58.2421 12.0806 59.5262 10.8418 63.0981 C 10.2847 64.7034 10.0017 66.1237 9.8647 67.3979 C 12.4097 68.1025 16.4983 68.5938 20.8372 70.569 C 26.2831 73.0482 31.275 77.038 34.392 77.038 C 37.5088 77.038 42.5005 73.0482 47.9463 70.569 C 52.2852 68.5938 56.3738 68.1025 58.9189 67.3979 C 58.7819 66.1237 58.4988 64.7034 57.9421 63.0981 Z" fill="#689f38"/>
				<path opacity="0.098" d="M 54.8252 46.6522 C 58.9158 40.7166 54.6812 35.6068 52.9355 32.5859 C 54.4711 35.372 57.1082 41.6141 52.0546 43.4097 C 46.278 45.4623 39.8398 41.335 34.4968 41.2391 L 34.2867 41.2391 C 28.9441 41.335 22.5056 45.4623 16.7292 43.4097 C 11.6758 41.6141 14.3125 35.372 15.8479 32.5859 C 14.1028 35.6068 9.8677 40.7166 13.9587 46.6522 C 15.0643 48.2565 12.7017 50.0485 12.7017 54.5125 C 12.7017 55.6224 12.7017 56.2673 12.7017 56.7044 C 13.3867 51.4854 13.8257 47.3619 16.989 48.0823 C 23.5385 49.5737 26.6831 43.7081 34.2867 43.2983 L 34.4968 43.2983 C 42.1007 43.7081 45.2451 49.5737 51.7948 48.0823 C 54.958 47.3619 55.3971 51.4854 56.0823 56.7044 C 56.0823 56.2673 56.0823 55.6224 56.0823 54.5125 C 56.0823 50.0485 53.7195 48.2565 54.8252 46.6522 Z" fill="#221e1f"/>
				<path opacity="0.098" d="M 40.1145 20.9378 C 40.0809 20.8469 40.0481 20.7557 40.0238 20.6605 C 39.8185 19.8594 39.7217 18.1401 39.676 16.7147 C 37.6904 18.3418 34.8096 20.7545 34.392 20.7715 L 34.392 20.8168 L 34.392 20.8168 L 34.3916 20.8168 L 34.3916 20.7715 C 33.9742 20.7545 31.0934 18.3418 29.1074 16.7147 C 29.0618 18.1401 28.9651 19.8594 28.7598 20.6605 C 28.7354 20.7557 28.7026 20.8469 28.6694 20.9378 C 29.9901 22.3955 31.9562 24.0193 34.392 24.1763 C 36.8274 24.0193 38.7935 22.3955 40.1145 20.9378 Z" fill="#221e1f"/>
			</g>
			<g>
				<path d="M 41.2839 10.6165 C 41.2839 7.2145 39.0796 4.0603 34.392 4.0042 C 29.704 4.0603 27.4995 7.2145 27.4995 10.6165 C 27.4995 13.1616 26.6709 14.1464 27.156 16.2357 C 27.6338 18.2953 29.3063 19.8371 30.1416 20.4405 C 31.3298 21.299 33.2522 21.891 34.392 21.7725 C 35.5317 21.891 37.4537 21.299 38.6422 20.4405 C 39.4773 19.8371 41.1497 18.2953 41.6279 16.2357 C 42.1129 14.1464 41.2839 13.1616 41.2839 10.6165 Z" fill="#fdd3ae"/>
				<path d="M 25.3492 13.0084 C 25.4476 11.0952 25.6042 9.278 25.9016 7.6397 C 26.2961 5.4622 26.9692 3.8449 28.6245 2.3752 C 30.0646 1.0966 32.1208 -0.0633 34.6418 0.0056 L 34.6418 0.0054 C 34.6436 0.0056 34.6453 0.0054 34.6472 0.0056 C 37.1716 -0.0643 38.999 0.5211 40.3318 1.5916 C 42.1353 2.8784 43.0498 4.9396 43.3931 7.6397 C 43.4978 8.4645 43.5957 9.3326 43.6842 10.2299 C 42.8201 10.5135 42.1866 10.7128 41.3127 10.9692 C 41.1582 9.0097 37.6033 7.1458 34.6418 6.1274 L 34.6418 6.1277 C 32.6918 5.4565 31.1116 5.4207 30.7054 5.4312 C 28.6387 5.4845 27.5547 9.3122 27.5547 11.6519 C 27.5547 12.1691 27.4174 12.462 27.4688 12.8674 C 26.4646 12.9424 26.3557 12.9694 25.3492 13.0084 Z" fill="#9c4530"/>
				<g>
					<path d="M 41.1737 11.9537 C 41.1794 11.8753 41.2109 11.8041 41.2646 11.7464 C 41.4541 11.5427 41.9211 11.1227 42.1467 11.6478 C 42.677 12.882 41.0725 14.3541 41.0114 14.6077 C 40.9585 14.8318 41.1324 12.4991 41.1737 11.9537 Z" fill="#fdd3ae"/>
					<path d="M 27.6099 11.9537 C 27.604 11.8753 27.5726 11.8041 27.5193 11.7464 C 27.3298 11.5427 26.8628 11.1227 26.6372 11.6478 C 26.1064 12.882 27.7113 14.3541 27.7722 14.6077 C 27.8252 14.8318 27.6511 12.4991 27.6099 11.9537 Z" fill="#fdd3ae"/>
				</g>
			</g>
		</g>
	</g>
</svg>