<?xml version="1.0" standalone="no"?>
<!-- Generator: Adobe Fireworks 10, Export SVG Extension by Aaron Beall (http://fireworks.abeall.com) . Version: 0.6.1  -->
<!DOCTYPE svg PUBLIC "-//W3C//DTD SVG 1.1//EN" "http://www.w3.org/Graphics/SVG/1.1/DTD/svg11.dtd">
<svg id="Untitled-Str%E1nka%201" viewBox="0 0 42 150" style="background-color:#ffffff00" version="1.1"
	xmlns="http://www.w3.org/2000/svg" xmlns:xlink="http://www.w3.org/1999/xlink" xml:space="preserve"
	x="0px" y="0px" width="42px" height="150px"
>
	<g id="Vrstva%201">
		<g id="normal">
			<g>
				<g id="left%20hand">
					<path d="M 40.2993 53.5843 C 40.4026 54.7065 39.3217 55.6798 38.1654 55.9803 C 37.6359 56.1174 35.4266 56.4672 35.0911 53.9017 C 34.5012 49.3996 32.7223 34.8821 31.9087 33.1879 C 31.1062 31.5176 31.396 30.1929 31.4196 29.376 C 32.2039 24.9664 36.3547 24.5912 38.0042 29.1901 C 38.3711 30.2138 39.6226 33.62 39.4823 38.432 C 39.3291 43.6604 39.8508 48.718 40.2993 53.5843 Z" fill="#fdd3ae"/>
					<path d="M 41.5374 73.3327 C 41.5925 72.0938 40.7476 71.4498 40.1565 71.2955 C 39.2839 71.0687 38.9615 71.3278 38.3242 72.5001 C 37.885 73.8308 36.8849 73.6444 36.0895 77.5381 C 35.8771 78.5847 35.6444 79.597 35.5092 80.5175 C 35.4954 80.6073 36.1787 80.858 36.5137 79.8658 C 37.3248 77.4718 37.5743 77.8184 38.0413 76.9884 C 37.922 78.0483 38.1909 79.0613 37.104 81.5693 C 36.417 83.1548 35.5542 84.0445 36.0868 84.6888 C 36.6187 85.3323 39.4772 82.9725 40.9496 78.7549 C 41.5088 77.1567 41.2014 75.6483 41.5374 73.3327 Z" fill="#fdd3ae"/>
					<path d="M 38.1583 72.9097 C 38.1583 72.9097 38.1583 72.909 38.1583 72.9083 C 38.431 74.4523 39.219 74.4738 39.8643 74.4932 C 40.5114 74.5113 41.4188 74.2022 41.5488 73.0391 C 41.6299 72.3096 41.5791 71.4554 41.6013 70.5552 C 41.8796 59.15 41.3489 56.1684 39.8734 51.8853 C 39.5092 50.8286 38.4172 49.4331 37.0599 49.9741 C 35.0601 50.7696 35.1489 52.5036 35.1765 53.6492 C 35.3318 60.0591 37.1249 63.5087 38.0951 71.4075 C 38.1775 72.077 38.1886 72.5436 38.1583 72.9097 Z" fill="#fdd3ae"/>
					<path d="M 28.3809 147.7072 C 28.7084 149.4375 26.6526 149.7526 25.5057 149.8378 C 24.5613 149.9068 21.9827 150.6208 21.9252 148.3817 C 21.9043 147.6013 22.9031 145.6832 23.0956 143.499 C 23.2925 141.2512 23.6223 139.0824 23.6826 137.9708 C 23.9425 133.2244 22.1809 123.356 21.8986 116.2697 C 21.6787 110.7623 22.6761 107.5416 22.8599 104.6341 C 23.0107 102.2441 22.1104 100.5352 22.2712 96.4712 C 22.5603 89.1832 21.8945 80.8104 21.4943 74.8693 C 21.3027 72.018 21.2784 64.7656 28.0466 63.9952 C 34.8796 63.2174 34.5706 68.4253 34.5734 71.1128 C 34.5881 82.0292 30.8776 92.0479 30.475 96.1306 C 30.1423 99.5101 29.762 101.9102 30.0295 104.5342 C 30.2959 107.1582 30.5908 110.1509 30.5336 114.2726 C 30.4474 120.498 27.4508 133.9645 27.5265 139.4001 C 27.5349 139.9814 27.5857 142.2729 27.718 143.3415 C 27.9563 145.2656 28.1667 146.5762 28.3809 147.7072 Z" fill="#fdd3ae"/>
				</g>
				<path d="M 13.8833 147.7072 C 13.5557 149.4375 15.6115 149.7526 16.759 149.8378 C 17.7036 149.9068 20.2814 150.6208 20.339 148.3817 C 20.3599 147.6013 19.3611 145.6832 19.1686 143.499 C 18.9717 141.2512 18.6417 139.0824 18.5815 137.9708 C 18.3206 133.2244 20.0828 123.356 20.3656 116.2697 C 20.5854 110.7623 19.5876 107.5416 19.4042 104.6341 C 19.2534 102.2441 20.1532 100.5352 19.9929 96.4712 C 19.7037 89.1832 20.3696 80.8104 20.7699 74.8693 C 20.9617 72.018 20.9856 64.7656 14.2175 63.9952 C 7.3845 63.2174 7.6935 68.4253 7.6908 71.1128 C 7.676 82.0292 11.3865 92.0479 11.7892 96.1306 C 12.1217 99.5101 12.5024 101.9102 12.2345 104.5342 C 11.9683 107.1582 11.6733 110.1509 11.7306 114.2726 C 11.8168 120.498 14.8127 133.9645 14.7375 139.4001 C 14.7292 139.9814 14.6783 142.2729 14.5461 143.3415 C 14.3083 145.2656 14.0974 146.5762 13.8833 147.7072 Z" fill="#fdd3ae"/>
				<g id="right%20hand">
					<path d="M 1.9648 53.5843 C 1.8616 54.7065 2.9424 55.6798 4.0988 55.9803 C 4.6282 56.1174 6.8374 56.4672 7.1731 53.9017 C 7.7628 49.3996 9.5419 34.8821 10.3555 33.1879 C 11.158 31.5176 10.8682 30.1929 10.8439 29.376 C 10.0603 24.9664 5.9097 24.5912 4.2606 29.1901 C 3.8931 30.2138 2.6418 33.62 2.7819 38.432 C 2.9351 43.6604 2.4132 48.718 1.9648 53.5843 Z" fill="#fdd3ae"/>
					<path d="M 0.7268 73.3327 C 0.6716 72.0938 1.5165 71.4498 2.1079 71.2955 C 2.9801 71.0687 3.3026 71.3278 3.9398 72.5001 C 4.3792 73.8308 5.3792 73.6444 6.174 77.5381 C 6.3875 78.5847 6.6196 79.597 6.7546 80.5175 C 6.7692 80.6073 6.0854 80.858 5.7505 79.8658 C 4.9392 77.4718 4.6892 77.8184 4.2229 76.9884 C 4.342 78.0483 4.0731 79.0613 5.16 81.5693 C 5.8472 83.1548 6.7092 84.0445 6.178 84.6888 C 5.6461 85.3323 2.7876 82.9725 1.3145 78.7549 C 0.7554 77.1567 1.0627 75.6483 0.7268 73.3327 Z" fill="#fdd3ae"/>
					<path d="M 4.1057 72.9097 C 4.1057 72.9097 4.1057 72.909 4.1057 72.9083 C 3.8331 74.4523 3.045 74.4738 2.3992 74.4932 C 1.7528 74.5113 0.8452 74.2022 0.7153 73.0391 C 0.6345 72.3096 0.6843 71.4554 0.6628 70.5552 C 0.3848 59.15 0.9146 56.1684 2.39 51.8853 C 2.7549 50.8286 3.8469 49.4331 5.2045 49.9741 C 7.2041 50.7696 7.1152 52.5036 7.0875 53.6492 C 6.9331 60.0591 5.1399 63.5087 4.1691 71.4075 C 4.0869 72.077 4.0754 72.5436 4.1057 72.9097 Z" fill="#fdd3ae"/>
				</g>
				<path d="M 11.2629 42.423 C 11.2629 42.423 10.1118 40.7332 9.8301 40.0161 C 8.8562 37.5347 9.1433 34.7853 10.3555 32.6298 L 6.4365 26.2663 C 7.9109 25.3461 16.4308 25.4772 17.4302 21.549 C 17.812 20.0526 18.094 14.5323 18.094 14.5323 L 21.1176 14.5209 L 21.1176 14.5209 L 21.1317 14.5209 L 21.1465 14.5209 L 21.1465 14.5209 L 24.17 14.5323 C 24.17 14.5323 24.4521 20.0526 24.8339 21.549 C 25.8333 25.4772 34.3531 25.3461 35.8276 26.2663 L 31.9087 32.6298 C 33.1208 34.7853 33.408 37.5347 32.4341 40.0161 C 32.1523 40.7332 31.0011 42.423 31.0011 42.423 C 30.5382 46.3903 30.2343 51.2745 30.5382 54.0651 C 30.9503 57.8561 34.5841 61.2057 34.5734 71.1128 C 34.5723 72.9231 25.2048 74.5562 21.1465 74.8907 L 21.1465 74.8934 C 21.1425 74.8928 21.1365 74.8928 21.1317 74.8921 C 21.1273 74.8928 21.1216 74.8928 21.1176 74.8934 L 21.1176 74.8907 C 17.0593 74.5562 7.6918 72.9231 7.6908 71.1128 C 7.6804 61.2057 11.3138 57.8561 11.7258 54.0651 C 12.0292 51.2745 11.7258 46.3903 11.2629 42.423 Z" fill="#fdd3ae"/>
			</g>
			<g>
				<path opacity="0.098" d="M 17.6144 20.4916 C 17.6696 20.0735 17.7211 19.5936 17.7689 19.0897 C 18.9941 20.1481 20.5322 20.8116 21.1317 20.8217 C 21.7319 20.8116 23.2699 20.1481 24.4946 19.0897 C 24.543 19.5936 24.5952 20.0735 24.6498 20.4916 C 24.1327 21.4516 22.8263 23.1702 21.1317 23.4563 C 19.4375 23.1702 18.1313 21.4516 17.6144 20.4916 Z" fill="#221e1f"/>
				<path d="M 21.1143 4.059 C 21.1143 4.059 21.0317 2.9672 21.1143 4.059 C 25.7848 4.1175 27.5039 8.0481 27.5039 11.4501 C 27.5039 13.9941 26.8345 14.8801 25.9949 17.103 C 25.184 19.2537 22.0826 20.7905 21.1465 20.8197 C 20.1812 20.7905 17.0812 19.2537 16.2689 17.103 C 15.4297 14.8801 14.7601 13.9941 14.7601 11.4501 C 14.7601 8.0481 16.4443 4.1123 21.1143 4.059 Z" fill="#fdd3ae"/>
				<path d="M 24.8564 21.549 C 24.7305 21.0544 24.6161 20.1195 24.5178 19.0897 C 25.1705 18.5266 25.735 17.854 26.0184 17.103 C 26.8577 14.8801 27.5272 13.9941 27.5272 11.4501 C 27.5272 11.3608 27.5259 11.2712 27.5242 11.1819 C 27.4384 7.9003 17.9331 4.7765 17.1909 5.4856 C 15.767 6.8448 14.7827 9.1114 14.7827 11.4501 C 14.7827 13.9941 15.4529 14.8801 16.2917 17.103 C 16.5759 17.854 17.1401 18.5278 17.7915 19.0911 C 17.6945 20.12 17.5797 21.0544 17.4535 21.549 C 16.9468 23.5422 14.5033 24.4897 12.0265 25.0604 C 11.6882 22.9476 11.6536 19.2272 11.7434 16.1083 C 11.8309 13.0795 11.9602 10.182 12.4095 7.6933 C 12.8027 5.5166 13.6621 2.9339 15.457 1.6475 C 16.7836 0.5774 18.6023 -0.0077 21.1143 0.0622 C 23.6267 -0.0077 25.4456 0.5774 26.7721 1.6475 C 28.567 2.9339 29.4773 4.9942 29.8188 7.6933 C 30.1367 10.2006 30.3976 13.0795 30.4857 16.1083 C 30.5757 19.2186 30.541 22.9268 30.2057 25.0426 C 27.7557 24.4699 25.3584 23.5211 24.8564 21.549 Z" fill="#9c4530"/>
				<path d="M 27.344 11.7424 C 27.344 11.7424 28.0591 10.9144 28.3125 11.5949 C 28.7817 12.8521 27.1147 14.2465 27.0427 14.4968 C 26.9705 14.7471 27.344 11.7424 27.344 11.7424 Z" fill="#fdd3ae"/>
				<path d="M 14.9604 11.7424 C 14.9604 11.7424 14.2458 10.9144 13.9923 11.5949 C 13.5237 12.8521 15.1893 14.2465 15.2621 14.4968 C 15.3337 14.7471 14.9604 11.7424 14.9604 11.7424 Z" fill="#fdd3ae"/>
			</g>
			<path d="M 34.3484 67.0168 C 34.3488 67.0168 34.3488 67.0168 34.3488 67.0168 C 33.5513 60.1747 30.8877 57.2786 30.5382 54.0651 C 30.2538 51.449 30.5026 46.9927 30.9163 43.1769 C 30.9438 42.9224 30.9722 42.6708 31.0011 42.423 C 31.0011 42.423 32.1523 40.7332 32.4341 40.0161 C 32.499 39.85 32.5576 39.6827 32.6116 39.5142 C 32.6223 39.4802 32.6313 39.4457 32.6415 39.4113 C 32.6842 39.2719 32.7242 39.1321 32.7593 38.9915 C 32.766 38.9664 32.771 38.9404 32.7775 38.9147 C 32.8142 38.7617 32.8474 38.6085 32.8757 38.4543 C 32.8774 38.4407 32.8801 38.4272 32.8824 38.4135 C 32.9111 38.2482 32.9366 38.0826 32.9558 37.9165 C 33.0225 37.3522 33.036 36.7862 32.9926 36.2279 C 32.9919 36.2202 32.9535 36.1106 32.8912 35.9235 C 32.6208 35.1127 31.8925 32.8448 31.7528 31.0861 C 31.6948 30.3658 31.6172 29.5889 31.563 28.8207 C 31.4818 27.6683 31.4535 26.5355 31.6252 25.6431 C 31.644 25.5439 31.6655 25.4477 31.6898 25.3549 C 31.5626 25.3383 30.8684 25.1762 30.2239 25.0336 C 30.009 24.9861 29.7997 24.9407 29.6189 24.9037 L 29.6189 24.9037 L 29.6187 24.9037 C 28.4136 35.3475 22.2617 36.1266 21.23 36.1165 C 21.1967 36.1161 21.1687 36.1149 21.1465 36.1133 L 21.1465 36.1116 C 21.1436 36.1122 21.1367 36.1122 21.1321 36.1126 C 21.1273 36.1122 21.1206 36.1122 21.1176 36.1116 L 21.1176 36.1133 C 21.0953 36.1149 21.0674 36.1161 21.0341 36.1165 C 20.0023 36.1266 13.851 35.3475 12.6455 24.9037 C 12.6451 24.9037 12.6451 24.9037 12.6451 24.9037 L 12.6451 24.9037 C 12.4644 24.9407 12.255 24.9861 12.0403 25.0336 C 11.3956 25.1762 10.7015 25.3383 10.5742 25.3549 C 10.5985 25.4477 10.6201 25.5439 10.6389 25.6431 C 10.8105 26.5355 10.7823 27.6683 10.7009 28.8207 C 10.647 29.5889 10.5692 30.3658 10.5114 31.0861 C 10.3824 32.7096 9.752 34.7667 9.4429 35.7114 C 9.417 35.7901 9.3938 35.8612 9.3729 35.9235 C 9.3315 36.0482 9.3005 36.1385 9.2844 36.1872 C 9.2762 36.2115 9.272 36.2252 9.2716 36.2279 C 9.2281 36.7862 9.2416 37.3522 9.3082 37.9165 C 9.3274 38.0826 9.353 38.2482 9.3816 38.4135 C 9.384 38.4272 9.3867 38.4407 9.3884 38.4543 C 9.4166 38.6085 9.45 38.7617 9.4867 38.9147 C 9.493 38.9404 9.498 38.9664 9.5049 38.9915 C 9.5398 39.1321 9.5798 39.2719 9.6227 39.4113 C 9.6331 39.4457 9.6418 39.4802 9.6526 39.5142 C 9.7058 39.6827 9.765 39.85 9.8301 40.0161 C 10.1118 40.7332 11.2629 42.423 11.2629 42.423 C 11.292 42.6708 11.3202 42.9224 11.3479 43.1769 C 11.7612 46.9927 12.0103 51.449 11.7258 54.0651 C 11.3765 57.2786 8.7128 60.1747 7.9153 67.0168 L 7.9156 67.0168 C 7.9153 67.0181 7.915 67.0195 7.915 67.0208 C 13.7209 69.5522 20.7699 74.8693 20.7699 74.8693 C 20.7699 74.8679 20.7699 74.8652 20.7705 74.8639 C 20.89 74.8733 21.0049 74.8827 21.1176 74.8907 L 21.1176 74.8934 C 21.1216 74.8928 21.1273 74.8928 21.1321 74.8921 C 21.1367 74.8928 21.1425 74.8928 21.1465 74.8934 L 21.1465 74.8907 C 21.2583 74.8827 21.374 74.8733 21.4937 74.8639 C 21.4943 74.8652 21.4943 74.8679 21.4943 74.8693 C 21.4943 74.8693 28.5431 69.5522 34.3491 67.0208 C 34.3491 67.0195 34.3488 67.0181 34.3484 67.0168 Z" fill="#689f38"/>
			<path opacity="0.098" d="M 9.2716 36.2279 C 9.2759 36.1865 9.2797 36.1454 9.2841 36.1042 C 9.29 36.0306 9.2992 35.957 9.3073 35.884 C 9.3126 35.8436 9.3301 35.7866 9.3523 35.7227 C 9.3073 37.9028 10.5547 40.3405 12.5109 40.6258 C 16.8193 41.2546 18.4684 39.5737 21.0668 39.5082 L 21.0668 39.503 C 21.0883 39.503 21.1101 39.505 21.1317 39.5054 C 21.1539 39.505 21.1752 39.503 21.1974 39.503 L 21.1974 39.5082 C 23.7958 39.5737 25.4442 41.2546 29.7533 40.6258 C 31.7097 40.3405 32.9569 37.9028 32.9111 35.7227 C 32.934 35.7866 32.9508 35.8436 32.9569 35.884 C 32.9656 35.957 32.974 36.0306 32.9801 36.1042 C 32.9849 36.1454 32.9882 36.1865 32.9926 36.2279 C 33.0841 37.4207 32.9316 38.6481 32.5032 39.8224 C 32.4341 40.0006 32.3613 40.1721 32.2874 40.3342 C 31.8763 41.138 31.0011 42.423 31.0011 42.423 C 30.9116 43.1936 30.8278 43.9991 30.7527 44.8168 C 30.4675 46.6752 30.4585 48.6312 30.4252 50.4097 C 30.1956 47.4758 29.3911 44.9882 29.0037 44.6492 C 27.2545 43.121 21.5219 43.0912 21.1384 43.0909 C 21.1365 43.0909 21.1357 43.0909 21.1317 43.0909 C 21.1284 43.0909 21.1277 43.0909 21.1257 43.0909 C 20.7422 43.0912 15.0096 43.121 13.2605 44.6492 C 12.8728 44.9882 12.0682 47.4758 11.839 50.4097 C 11.8057 48.6312 11.7959 46.6752 11.5115 44.8168 C 11.4364 43.9991 11.3525 43.1936 11.2629 42.423 C 11.2629 42.423 10.3878 41.138 9.9768 40.3342 C 9.9027 40.1721 9.8301 40.0006 9.761 39.8224 C 9.3331 38.6481 9.1797 37.4207 9.2716 36.2279 Z" fill="#221e1f"/>
		</g>
	</g>
</svg>