<?xml version="1.0" standalone="no"?>
<!-- Generator: Adobe Fireworks 10, Export SVG Extension by Aaron Beall (http://fireworks.abeall.com) . Version: 0.6.1  -->
<!DOCTYPE svg PUBLIC "-//W3C//DTD SVG 1.1//EN" "http://www.w3.org/Graphics/SVG/1.1/DTD/svg11.dtd">
<svg id="Untitled-Str%E1nka%201" viewBox="0 0 59 150" style="background-color:#ffffff00" version="1.1"
	xmlns="http://www.w3.org/2000/svg" xmlns:xlink="http://www.w3.org/1999/xlink" xml:space="preserve"
	x="0px" y="0px" width="59px" height="150px"
>
	<g id="Vrstva%201">
		<g id="2">
			<g>
				<g>
					<path d="M 29.4036 74.9187 C 29.41 75.5967 29.4097 76.3163 29.4036 77.0665 L 29.4036 74.9187 Z" fill="#fdd3ae"/>
				</g>
				<g>
					<path d="M 30.4333 96.4732 C 29.7113 89.2643 29.3613 82.3665 29.3175 77.1229 L 29.3175 74.9338 C 29.3175 74.9202 29.3175 74.9056 29.3175 74.8921 C 29.3455 72.0346 29.6799 65.9335 36.2087 63.9974 C 46.4548 60.9589 49.7339 67.2037 49.7325 67.9371 C 49.6971 84.429 43.582 91.0908 43.1794 95.1736 C 42.8469 98.5532 42.4663 100.9532 42.7341 103.5772 C 43.0005 106.2012 43.366 112.5016 42.8462 116.9418 C 42.1226 123.126 39.0779 133.6823 37.842 138.9775 C 37.5664 140.1597 36.9277 141.7583 37.0601 142.827 C 37.2977 144.751 38.4823 146.1535 38.6964 147.2845 C 39.0239 149.0148 34.8148 149.7546 33.6672 149.8398 C 32.9705 149.8907 31.3887 150.2886 30.5812 149.5981 L 30.5812 146.5035 C 30.8555 145.6464 31.1602 144.6086 31.2578 143.501 C 31.4547 141.2532 31.7845 139.0844 31.8448 137.9728 C 32.1057 133.2264 30.3435 123.358 30.0608 116.2717 C 29.8409 110.7643 30.8386 107.5436 31.0222 104.6361 C 31.1729 102.2461 30.8386 100.5201 30.4333 96.4732 Z" fill="#fdd3ae"/>
					<g id="right%20hand">
						<path d="M 57.2769 53.3061 C 57.6516 54.3695 54.3243 53.7739 53.2765 54.346 C 52.7964 54.6075 50.9709 55.379 49.7856 53.0768 C 44.9519 43.6877 42.8311 35.2062 41.6274 33.7608 C 40.4402 32.3358 40.3967 30.9806 40.2202 30.1827 C 40.0223 27.4197 41.0854 26.1434 43.3354 26.0558 C 45.7301 25.9624 51.0811 27.6539 53.8773 35.2221 C 55.691 40.131 55.6504 48.6953 57.2769 53.3061 Z" fill="#fdd3ae"/>
						<path d="M 57.9905 71.4338 C 57.8357 70.2032 54.9454 70.5795 54.3362 70.5266 C 53.438 70.4493 53.1641 70.7587 52.7341 72.0209 C 52.5259 73.4066 51.5085 73.3903 51.3837 77.3619 C 51.3503 78.4291 51.2925 79.4659 51.3149 80.3954 C 51.3159 80.4869 52.0322 80.6197 52.1946 79.5856 C 52.5894 77.089 52.8948 77.389 53.2139 76.493 C 53.2754 77.5573 53.712 78.5106 53.0647 81.1654 C 52.6554 82.8434 51.9563 83.8648 52.5887 84.4112 C 53.2219 84.9566 55.927 82.3065 56.6659 77.9025 C 56.947 76.2332 58.051 73.7726 57.9905 71.4338 Z" fill="#fdd3ae"/>
						<path d="M 54.25 73.0434 C 54.8962 73.0629 57.8612 72.5226 57.9932 71.3597 C 58.0753 70.6304 57.9275 69.7681 58.05 68.8758 C 59.5649 57.8679 57.8323 54.035 55.9121 50.4828 C 55.3804 49.4987 52.8483 47.9808 51.4897 48.5193 C 49.4888 49.3113 49.5742 51.0453 49.5999 52.1909 C 49.7427 58.6011 52.2181 63.1031 53.1744 71.0037 C 53.2552 71.6733 53.6036 73.0228 54.25 73.0434 Z" fill="#fdd3ae"/>
					</g>
				</g>
				<g>
					<path d="M 28.3739 96.4732 C 29.0959 89.2643 29.4458 82.3665 29.4897 77.1229 L 29.4897 74.9338 C 29.4895 74.9202 29.4895 74.9056 29.4895 74.8921 C 29.4619 72.0346 29.1272 65.9335 22.5985 63.9974 C 12.3521 60.9589 9.0731 67.2037 9.0747 67.9371 C 9.1101 84.429 15.2251 91.0908 15.6278 95.1736 C 15.9604 98.5532 16.3411 100.9532 16.0731 103.5772 C 15.8069 106.2012 15.4409 112.5016 15.9607 116.9418 C 16.6848 123.126 19.7295 133.6823 20.9648 138.9775 C 21.241 140.1597 21.8795 141.7583 21.7472 142.827 C 21.5095 144.751 20.3247 146.1535 20.1106 147.2845 C 19.783 149.0148 23.9924 149.7546 25.14 149.8398 C 25.8364 149.8907 27.4186 150.2886 28.2258 149.5981 L 28.2258 146.5035 C 27.9518 145.6464 27.6472 144.6086 27.5496 143.501 C 27.3525 141.2532 27.0227 139.0844 26.9624 137.9728 C 26.7017 133.2264 28.4639 123.358 28.7466 116.2717 C 28.9663 110.7643 27.9686 107.5436 27.7852 104.6361 C 27.6344 102.2461 27.9686 100.5201 28.3739 96.4732 Z" fill="#fdd3ae"/>
					<g id="right%20hand2">
						<path d="M 1.5305 53.3061 C 1.1555 54.3695 4.4829 53.7739 5.5308 54.346 C 6.0109 54.6075 7.8359 55.379 9.0212 53.0768 C 13.8552 43.6877 15.9758 35.2062 17.1797 33.7608 C 18.3669 32.3358 18.4103 30.9806 18.5867 30.1827 C 18.7847 27.4197 17.7216 26.1434 15.4719 26.0558 C 13.0769 25.9624 7.7263 27.6539 4.9299 35.2221 C 3.1162 40.131 3.157 48.6953 1.5305 53.3061 Z" fill="#fdd3ae"/>
						<path d="M 0.8164 71.4338 C 0.9717 70.2032 3.8618 70.5795 4.4708 70.5266 C 5.3689 70.4493 5.6429 70.7587 6.0731 72.0209 C 6.2813 73.4066 7.2985 73.3903 7.4233 77.3619 C 7.457 78.4291 7.5145 79.4659 7.4923 80.3954 C 7.491 80.4869 6.775 80.6197 6.6124 79.5856 C 6.2175 77.089 5.9126 77.389 5.5931 76.493 C 5.5315 77.5573 5.0952 78.5106 5.7426 81.1654 C 6.1516 82.8434 6.8507 83.8648 6.2183 84.4112 C 5.5854 84.9566 2.8804 82.3065 2.1411 77.9025 C 1.86 76.2332 0.7562 73.7726 0.8164 71.4338 Z" fill="#fdd3ae"/>
						<path d="M 4.5574 73.0434 C 3.9106 73.0629 0.946 72.5226 0.8141 71.3597 C 0.7319 70.6304 0.8798 69.7681 0.7568 68.8758 C -0.7576 57.8679 0.9751 54.035 2.8948 50.4828 C 3.4266 49.4987 5.9587 47.9808 7.3174 48.5193 C 9.3185 49.3113 9.2327 51.0453 9.207 52.1909 C 9.0647 58.6011 6.5891 63.1031 5.6328 71.0037 C 5.552 71.6733 5.2034 73.0228 4.5574 73.0434 Z" fill="#fdd3ae"/>
					</g>
				</g>
			</g>
			<g>
				<g>
					<path d="M 39.6956 16.6804 C 39.6079 13.6517 39.5437 11.3199 38.9603 8.8588 C 37.0442 0.7758 33.3215 0.0587 29.4036 0.0643 L 29.4036 0.0643 L 29.4036 0.0643 C 25.4857 0.0587 21.7627 0.7758 19.8469 8.8588 C 19.2637 11.3199 19.199 13.6517 19.1115 16.6804 C 19.0216 19.7994 18.7732 22.9498 19.1115 25.0626 C 21.4237 24.5298 37.3833 24.5298 39.6956 25.0626 C 40.0338 22.9498 39.7854 19.7994 39.6956 16.6804 Z" fill="#9c4530"/>
					<path d="M 48.0535 59.9091 C 47.4663 58.2329 47.6643 56.7639 46.9834 53.8633 C 46.4064 51.4066 44.3981 48.9657 44.6384 44.968 C 44.6509 44.757 44.7798 44.5809 44.9282 44.4299 C 45.0192 44.3376 45.1804 44.0446 45.4581 43.3743 C 46.4067 41.086 45.5457 36.7224 43.2778 32.8107 C 43.2845 29.7932 44.0759 26.2591 44.0759 26.2591 C 42.6016 25.3389 35.55 24.5923 34.5505 20.664 C 34.1689 19.1675 33.2566 14.3766 33.2566 14.3766 L 29.4036 14.5251 L 25.5508 14.3766 C 25.5508 14.3766 24.6384 19.1675 24.2567 20.664 C 23.2573 24.5923 16.2058 25.3389 14.7314 26.2591 C 14.7314 26.2591 15.5225 29.7932 15.5295 32.8107 C 13.2617 36.7224 12.4003 41.086 13.3491 43.3743 C 13.627 44.0446 13.7878 44.3376 13.8787 44.4299 C 14.0275 44.5809 14.156 44.757 14.1689 44.968 C 14.4092 48.9657 12.4006 51.4066 11.824 53.8633 C 11.1426 56.7639 11.3409 58.2329 10.7539 59.9091 C 10.1301 61.6897 8.7217 65.591 9.2156 69.4812 C 9.4242 71.1238 11.6005 74.9187 11.6005 74.9187 C 13.092 80.4612 11.8096 76.7126 29.4036 78.168 C 46.9976 76.7126 45.715 80.4612 47.2068 74.9187 C 47.2068 74.9187 49.3831 71.1238 49.5916 69.4812 C 50.0857 65.591 48.6769 61.6897 48.0535 59.9091 Z" fill="#fdd3ae"/>
					<g>
						<path d="M 29.4036 74.9187 C 29.3972 75.5967 29.3976 76.3163 29.4036 77.0665 L 29.4036 74.9187 Z" fill="#fdd3ae"/>
					</g>
				</g>
				<g>
					<path opacity="0.098" d="M 34.5183 18.3602 C 33.238 19.2941 30.0503 20.7993 29.4897 20.8221 L 29.4897 20.8673 L 29.4897 20.8673 L 29.4895 20.8673 L 29.4895 20.8221 C 28.9294 20.7993 25.7412 19.2941 24.4614 18.3602 C 24.3473 18.9039 24.1699 19.7303 24.0801 20.1121 C 24.8169 21.1337 26.7847 23.1567 29.4895 23.4534 L 29.4897 23.4534 L 29.4897 23.4534 C 32.1946 23.1567 34.1628 21.1337 34.8994 20.1121 C 34.8094 19.7303 34.6323 18.9039 34.5183 18.3602 Z" fill="#221e1f"/>
					<path d="M 35.922 11.1841 C 35.922 7.7834 34.0692 4.1177 29.4036 4.0613 L 29.4036 4.0613 L 29.4036 4.0613 C 24.7378 4.1177 22.885 7.7834 22.885 11.1841 C 22.885 13.7281 22.3124 15.2535 23.4041 17.1005 C 24.29 18.5995 24.9094 19.5072 25.741 20.1104 C 26.9235 20.9686 28.8311 21.3146 29.4036 21.3505 C 29.9763 21.3146 31.8835 20.9686 33.0664 20.1104 C 33.8975 19.5072 34.5173 18.5995 35.4033 17.1005 C 36.4946 15.2535 35.922 13.7281 35.922 11.1841 Z" fill="#fdd3ae"/>
					<path d="M 38.1138 7.6954 C 37.772 4.9964 36.8618 2.936 35.0669 1.6497 C 33.7404 0.5796 31.9216 -0.0056 29.4091 0.0643 C 29.407 0.0642 29.4053 0.0643 29.4036 0.0642 L 29.4036 0.0643 C 26.8945 -0.0045 25.0774 0.5803 23.7517 1.6497 C 21.9569 2.936 21.0975 5.5188 20.7043 7.6954 C 20.4084 9.3331 20.2527 11.1496 20.155 13.0621 C 21.1565 13.023 21.2649 12.996 22.2643 12.9211 C 22.2131 12.5159 22.7231 11.9822 22.7231 11.4651 C 22.7231 9.1265 24.0618 6.847 25.4857 5.4878 C 25.7776 5.2087 27.4626 5.5131 29.4036 6.184 L 29.4036 6.1837 C 32.3511 7.2017 35.8894 9.0649 36.0432 11.0237 C 36.913 10.7673 37.5435 10.5682 38.4036 10.2846 C 38.3154 9.3878 38.218 8.5199 38.1138 7.6954 Z" fill="#9c4530"/>
					<path d="M 23.0934 11.7446 C 23.0934 11.7446 22.3787 10.9166 22.1252 11.597 C 21.6567 12.8542 23.3223 14.2487 23.395 14.499 C 23.4667 14.7493 23.0934 11.7446 23.0934 11.7446 Z" fill="#fdd3ae"/>
					<path d="M 35.7139 11.7446 C 35.7139 11.7446 36.4286 10.9166 36.6821 11.597 C 37.1506 12.8542 35.4851 14.2487 35.4124 14.499 C 35.3406 14.7493 35.7139 11.7446 35.7139 11.7446 Z" fill="#fdd3ae"/>
				</g>
				<path d="M 48.0535 59.9091 C 47.9744 59.7291 47.9158 59.5192 47.8669 59.2873 C 47.5481 58.0264 47.5654 56.7642 47.1782 54.7749 C 47.0426 54.2101 46.8689 53.6104 46.6387 52.9766 C 46.4771 52.5322 46.3333 52.1012 46.2051 51.6812 C 45.4265 49.8518 44.468 47.8017 44.6384 44.968 C 44.6509 44.757 44.7798 44.5809 44.9282 44.4299 C 45.0192 44.3376 45.1804 44.0446 45.4581 43.3743 C 46.4067 41.086 45.5457 36.7224 43.2778 32.8107 C 43.2845 29.7932 44.0759 26.2591 44.0759 26.2591 C 44.0322 26.2316 43.9827 26.2045 43.9292 26.1773 C 43.912 26.1686 43.8925 26.1599 43.8743 26.1513 C 43.8359 26.1329 43.7969 26.1143 43.7544 26.0958 C 43.7312 26.0858 43.7061 26.0756 43.6814 26.0653 C 43.6396 26.0481 43.5973 26.0308 43.5522 26.0135 C 43.5256 26.0033 43.4983 25.9931 43.4707 25.9828 C 43.4226 25.9651 43.3734 25.9472 43.3223 25.9293 C 43.2953 25.9197 43.2677 25.9103 43.2397 25.9008 C 43.1815 25.8808 43.1213 25.8608 43.0593 25.8406 C 43.0369 25.8332 43.0146 25.8258 42.9917 25.8185 C 42.9116 25.7928 42.8291 25.7668 42.7439 25.7404 C 42.7395 25.739 42.7351 25.7379 42.7312 25.7365 C 42.0111 25.5146 41.1147 25.2684 40.1802 24.9595 C 40.1731 24.9572 40.166 24.9547 40.1587 24.9523 C 40.0496 24.9163 39.9402 24.8794 39.8306 24.8413 L 39.8306 24.8413 C 39.299 32.7827 33.0664 36.1158 29.4646 36.1158 L 29.4642 36.1158 L 29.343 36.1158 L 29.3428 36.1158 C 25.7405 36.1158 19.5081 32.7827 18.9768 24.8413 L 18.9768 24.8413 C 18.8667 24.8794 18.7573 24.9163 18.6482 24.9523 C 18.6412 24.9547 18.6338 24.9572 18.6267 24.9595 C 17.6923 25.2684 16.7959 25.5146 16.0762 25.7365 C 16.0718 25.7379 16.0677 25.739 16.0634 25.7404 C 15.9778 25.7668 15.8958 25.7928 15.8153 25.8185 C 15.7925 25.8258 15.7703 25.8332 15.7476 25.8406 C 15.6857 25.8608 15.6257 25.8808 15.5671 25.9008 C 15.5393 25.9103 15.512 25.9197 15.4847 25.9293 C 15.4336 25.9472 15.3844 25.9651 15.3367 25.9828 C 15.3091 25.9931 15.2815 26.0033 15.2549 26.0135 C 15.2097 26.0308 15.1676 26.0481 15.1259 26.0653 C 15.1013 26.0756 15.0757 26.0858 15.0525 26.0958 C 15.01 26.1143 14.9709 26.1329 14.933 26.1513 C 14.9148 26.1599 14.895 26.1686 14.8778 26.1773 C 14.8246 26.2045 14.7751 26.2316 14.7314 26.2591 C 14.7314 26.2591 15.5225 29.7932 15.5295 32.8107 C 13.2617 36.7224 12.4003 41.086 13.3491 43.3743 C 13.627 44.0446 13.7878 44.3376 13.8787 44.4299 C 14.0275 44.5809 14.156 44.757 14.1689 44.968 C 14.3391 47.8017 13.3809 49.8518 12.6023 51.6812 C 12.474 52.1012 12.3298 52.5322 12.1687 52.9766 C 11.9385 53.6104 11.7644 54.2101 11.6292 54.7749 C 11.2419 56.7642 11.2588 58.0264 10.9404 59.2873 C 10.8911 59.5192 10.8326 59.7291 10.7539 59.9091 C 10.2361 61.3867 9.1819 64.3254 9.1189 67.5055 C 11.1877 67.783 14.4136 68.9402 17.2961 70.5118 C 20.8027 72.4236 27.2924 76.6918 29.4036 76.6918 C 31.5149 76.6918 38.0044 72.4236 41.5112 70.5118 C 44.3938 68.9402 47.6196 67.783 49.6885 67.5055 C 49.6255 64.3254 48.5708 61.3867 48.0535 59.9091 Z" fill="#689f38"/>
				<path opacity="0.098" d="M 46.6387 52.9766 C 46.636 52.9695 46.6339 52.9628 46.6312 52.9557 C 46.4589 52.4893 46.3044 52.0338 46.166 51.5898 C 45.3948 49.7834 44.4708 47.7548 44.6384 44.968 C 44.6509 44.757 44.7798 44.5809 44.9282 44.4299 C 44.9753 44.3821 45.042 44.2787 45.1333 44.0985 C 45.1812 43.6123 45.2588 43.2806 45.3386 43.1302 C 45.3969 43.0205 45.4507 42.9112 45.5015 42.8024 C 45.5248 42.6776 45.5464 42.5485 45.5698 42.4252 C 45.5698 42.4252 45.624 42.3767 45.715 42.2939 C 45.7345 42.2423 45.7506 42.1912 45.7686 42.1397 C 46.0085 40.3542 45.5784 37.9294 44.5725 35.4578 C 44.3052 35.0113 44.0413 34.6013 43.8154 34.2333 C 45 36.817 46.5659 40.7493 42.2363 41.7941 C 36.9126 43.0786 33.7175 41.3525 29.4642 41.2805 L 29.343 41.2805 C 25.0896 41.3525 21.8947 43.0786 16.571 41.7941 C 12.241 40.7493 13.807 36.817 14.9916 34.2333 C 14.7661 34.6013 14.5017 35.0113 14.2345 35.4578 C 13.2288 37.9294 12.7988 40.3542 13.0386 42.1397 C 13.0564 42.1912 13.0728 42.2423 13.092 42.2939 C 13.1832 42.3767 13.2374 42.4252 13.2374 42.4252 C 13.2607 42.5485 13.2825 42.6776 13.3054 42.8024 C 13.3567 42.9112 13.4102 43.0205 13.4684 43.1302 C 13.5481 43.2806 13.6262 43.6123 13.6741 44.0985 C 13.7653 44.2787 13.8315 44.3821 13.8787 44.4299 C 14.0275 44.5809 14.156 44.757 14.1689 44.968 C 14.3362 47.7548 13.4125 49.7834 12.6414 51.5898 C 12.5027 52.0338 12.3481 52.4893 12.1758 52.9557 C 12.1733 52.9628 12.171 52.9695 12.1687 52.9766 C 12.0684 53.2529 11.9802 53.5214 11.8997 53.7847 C 14.9902 50.6816 13.8323 45.6843 16.8342 45.6843 C 20.7832 45.6843 23.2677 43.4685 29.343 43.0972 L 29.4642 43.0972 C 35.5396 43.4685 38.0242 45.6843 41.9731 45.6843 C 44.9751 45.6843 43.8168 50.6816 46.9072 53.7847 C 46.8268 53.5214 46.739 53.2529 46.6387 52.9766 Z" stroke="#221e1f" stroke-width="1" fill="#221e1f"/>
			</g>
		</g>
	</g>
</svg>