<?xml version="1.0" standalone="no"?>
<!-- Generator: Adobe Fireworks 10, Export SVG Extension by Aaron Beall (http://fireworks.abeall.com) . Version: 0.6.1  -->
<!DOCTYPE svg PUBLIC "-//W3C//DTD SVG 1.1//EN" "http://www.w3.org/Graphics/SVG/1.1/DTD/svg11.dtd">
<svg id="Untitled-Str%E1nka%201" viewBox="0 0 52 150" style="background-color:#ffffff00" version="1.1"
	xmlns="http://www.w3.org/2000/svg" xmlns:xlink="http://www.w3.org/1999/xlink" xml:space="preserve"
	x="0px" y="0px" width="52px" height="150px"
>
	<g id="Vrstva%201">
		<g id="overweigt">
			<g>
				<path d="M 36.0469 16.6783 C 35.9594 13.6495 35.895 11.3177 35.3118 8.8566 C 33.3956 0.7737 29.673 0.0565 25.755 0.0622 C 21.8372 0.0565 18.1143 0.7737 16.1984 8.8566 C 15.615 11.3177 15.5505 13.6495 15.463 16.6783 C 15.3732 19.7972 15.1248 22.9476 15.463 25.0604 C 17.7753 24.5276 25.2501 26.1212 25.755 25.2783 C 26.26 26.1212 33.7346 24.5276 36.0469 25.0604 C 36.3855 22.9476 36.1371 19.7972 36.0469 16.6783 Z" fill="#9c4530"/>
				<path d="M 40.6923 54.7783 C 38.3942 48.8287 39.3424 43.8275 39.6663 43.1281 C 41.4133 39.3524 39.9281 37.1988 38.3365 34.2311 L 40.4272 26.2569 C 38.9529 25.3368 31.0632 24.7386 30.0637 20.8104 C 29.682 19.314 28.7698 14.5229 28.7698 14.5229 L 22.7402 14.5229 C 22.7402 14.5229 21.828 19.314 21.4463 20.8104 C 20.4469 24.7386 12.5571 25.3368 11.0828 26.2569 L 13.1735 34.2311 C 11.5822 37.1988 10.0967 39.3524 11.8439 43.1281 C 12.1675 43.8275 13.116 48.8287 10.818 54.7783 C 9.4434 58.3373 7.7369 65.4241 7.9456 72.0552 C 8.126 77.7906 8.161 73.4252 25.7549 74.8805 L 25.7551 74.8805 C 43.3489 73.4252 43.3838 77.7906 43.5642 72.0552 C 43.7729 65.4241 42.0667 58.3373 40.6923 54.7783 Z" fill="#fdd3ae"/>
				<path opacity="0.098" d="M 29.604 18.7371 C 28.3241 19.671 26.3156 20.7971 25.7551 20.8199 L 25.7551 20.8651 L 25.7549 20.8651 L 25.7549 20.8199 C 25.1946 20.7971 23.1859 19.671 21.906 18.7371 C 21.7919 19.2808 21.6146 20.1072 21.5247 20.489 C 22.2615 21.5106 24.2281 23.1809 25.7549 23.4512 L 25.7551 23.4512 C 27.282 23.1809 29.2485 21.5106 29.9854 20.489 C 29.8955 20.1072 29.7184 19.2808 29.604 18.7371 Z" fill="#221e1f"/>
				<g>
					<path d="M 33.9545 147.7991 C 34.2816 149.5294 31.2524 149.7526 30.1049 149.8378 C 29.1603 149.9068 26.5825 150.6208 26.5249 148.3817 C 26.504 147.6013 27.5028 145.6832 27.6953 143.499 C 27.8922 141.2512 28.2222 139.0824 28.2823 137.9708 C 28.5432 133.2244 26.781 123.356 26.4983 116.2697 C 26.2784 110.7623 27.2762 107.5416 27.4597 104.6341 C 27.6105 102.2441 27.2762 100.5181 26.871 96.4712 C 26.0413 88.1879 25.7025 80.3137 25.7551 74.8899 C 25.783 72.0324 26.1176 65.9314 32.6464 63.9952 C 42.8923 60.9568 43.5327 70.1725 43.5354 72.86 C 43.5502 83.7767 38.8398 91.6053 38.4373 95.6882 C 38.1046 99.0677 37.7239 101.4678 37.9919 104.0917 C 38.2582 106.7157 38.624 113.0162 38.1042 117.4564 C 37.3802 123.6405 34.3354 134.1968 33.1001 139.492 C 32.8241 140.6743 32.1855 142.2729 32.3177 143.3415 C 32.5554 145.2656 33.7404 146.6681 33.9545 147.7991 Z" fill="#fdd3ae"/>
					<g id="right%20hand">
						<path d="M 48.8464 52.7657 C 49.0608 53.8724 46.5242 55.0257 45.4036 55.4387 C 44.8899 55.6272 42.9708 56.1237 42.1377 53.6733 C 38.7385 43.6798 37.8899 34.9804 36.912 33.3748 C 35.9473 31.7918 36.1041 30.4449 36.0469 29.6298 C 36.2583 26.8678 37.4977 25.7606 39.7362 26.0025 C 42.1189 26.2599 45.9502 29.4923 47.6016 37.387 C 48.6726 42.5078 47.917 47.9674 48.8464 52.7657 Z" fill="#fdd3ae"/>
						<path d="M 50.8651 72.3147 C 50.6887 71.087 47.8052 71.5135 47.1948 71.4711 C 46.2959 71.4096 46.0273 71.7237 45.6196 72.9931 C 45.4359 74.3822 44.4187 74.3837 44.3634 78.3568 C 44.3486 79.4247 44.3088 80.4622 44.3479 81.3914 C 44.3506 81.4825 45.069 81.6028 45.2131 80.5661 C 45.5642 78.0631 45.8745 78.3577 46.1777 77.4564 C 46.2583 78.5193 46.7114 79.4649 46.1108 82.1305 C 45.7312 83.8156 45.05 84.849 45.6921 85.384 C 46.3347 85.9183 48.9928 83.2216 49.6545 78.8056 C 49.906 77.1316 50.9664 74.652 50.8651 72.3147 Z" fill="#fdd3ae"/>
						<path d="M 47.1532 73.9892 C 47.7996 73.9973 50.7546 73.4056 50.8665 72.2404 C 50.9358 71.5098 50.8184 70.6546 50.8799 69.756 C 51.7228 57.4098 50.4012 54.9213 48.4192 51.403 C 47.8699 50.4283 45.3118 48.9548 43.9629 49.5169 C 41.9761 50.3435 42.0919 52.0759 42.1377 53.2208 C 42.3928 59.6275 44.9471 64.0858 46.0417 71.9684 C 46.1348 72.6365 46.5071 73.9798 47.1532 73.9892 Z" fill="#fdd3ae"/>
					</g>
				</g>
				<g>
					<path d="M 17.5558 147.7991 C 17.2283 149.5294 20.2577 149.7526 21.4053 149.8378 C 22.3499 149.9068 24.9276 150.6208 24.9851 148.3817 C 25.0061 147.6013 24.0073 145.6832 23.8147 143.499 C 23.6178 141.2512 23.288 139.0824 23.2277 137.9708 C 22.9668 133.2244 24.729 123.356 25.0117 116.2697 C 25.2316 110.7623 24.2339 107.5416 24.0504 104.6341 C 23.8995 102.2441 24.2339 100.5181 24.6392 96.4712 C 25.4688 88.1879 25.8076 80.3137 25.7549 74.8899 C 25.7271 72.0324 25.3925 65.9314 18.8638 63.9952 C 8.6174 60.9568 7.9774 70.1725 7.9747 72.86 C 7.96 83.7767 12.6703 91.6053 13.0729 95.6882 C 13.4054 99.0677 13.7861 101.4678 13.5182 104.0917 C 13.252 106.7157 12.8862 113.0162 13.406 117.4564 C 14.1299 123.6405 17.1746 134.1968 18.4102 139.492 C 18.686 140.6743 19.3246 142.2729 19.1923 143.3415 C 18.9546 145.2656 17.7699 146.6681 17.5558 147.7991 Z" fill="#fdd3ae"/>
					<g id="right%20hand2">
						<path d="M 2.6633 52.7657 C 2.4491 53.8724 4.9858 55.0257 6.1067 55.4387 C 6.62 55.6272 8.5393 56.1237 9.3726 53.6733 C 12.7714 43.6798 13.6201 34.9804 14.5981 33.3748 C 15.5626 31.7918 15.406 30.4449 15.463 29.6298 C 15.2518 26.8678 14.0123 25.7606 11.7739 26.0025 C 9.3912 26.2599 5.5599 29.4923 3.9084 37.387 C 2.8374 42.5078 3.5933 47.9674 2.6633 52.7657 Z" fill="#fdd3ae"/>
						<path d="M 0.645 72.3147 C 0.8218 71.087 3.7048 71.5135 4.3148 71.4711 C 5.2141 71.4096 5.4827 71.7237 5.8904 72.9931 C 6.0742 74.3822 7.0916 74.3837 7.1469 78.3568 C 7.1614 79.4247 7.2009 80.4622 7.1624 81.3914 C 7.1597 81.4825 6.441 81.6028 6.2969 80.5661 C 5.9459 78.0631 5.6355 78.3577 5.332 77.4564 C 5.2518 78.5193 4.7987 79.4649 5.3992 82.1305 C 5.7789 83.8156 6.4601 84.849 5.818 85.384 C 5.1755 85.9183 2.5175 83.2216 1.8558 78.8056 C 1.6042 77.1316 0.5435 74.652 0.645 72.3147 Z" fill="#fdd3ae"/>
						<path d="M 4.3569 73.9892 C 3.7102 73.9973 0.7554 73.4056 0.6438 72.2404 C 0.5745 71.5098 0.6917 70.6546 0.6304 69.756 C -0.2124 57.4098 1.109 54.9213 3.0911 51.403 C 3.64 50.4283 6.1984 48.9548 7.5474 49.5169 C 9.5342 50.3435 9.418 52.0759 9.3723 53.2208 C 9.1172 59.6275 6.563 64.0858 5.468 71.9684 C 5.3755 72.6365 5.0032 73.9798 4.3569 73.9892 Z" fill="#fdd3ae"/>
					</g>
				</g>
			</g>
			<g>
				<g>
					<path d="M 32.2733 11.1819 C 32.2733 7.7813 30.4207 4.1155 25.755 4.0591 C 21.0894 4.1155 19.2366 7.7813 19.2366 11.1819 C 19.2366 13.726 18.976 15.2513 20.0675 17.0983 C 20.9535 18.5973 21.9938 19.0063 22.8251 19.6094 C 24.0078 20.4676 25.1824 20.7795 25.755 20.8156 C 26.3276 20.7795 27.5021 20.4676 28.6849 19.6094 C 29.5164 19.0063 30.5566 18.5973 31.4426 17.0983 C 32.5339 15.2513 32.2733 13.726 32.2733 11.1819 Z" fill="#fdd3ae"/>
					<path d="M 32.3945 11.0215 C 33.2644 10.7651 33.8949 10.566 34.7549 10.2824 C 34.6667 9.3856 34.5695 8.5177 34.4651 7.6933 C 34.1234 4.9942 33.2131 2.9339 31.4183 1.6475 C 30.0917 0.5774 28.2729 -0.0077 25.7604 0.0622 C 23.2485 -0.0077 21.4298 0.5774 20.1031 1.6475 C 18.3083 2.9339 17.449 5.5166 17.0558 7.6933 C 16.76 9.3309 16.6041 11.1474 16.5063 13.0599 C 17.5081 13.0209 17.6165 12.9939 18.6158 12.9189 C 18.5647 12.5137 19.0746 11.98 19.0746 11.463 C 19.0746 9.1243 20.4132 6.8448 21.8372 5.4856 C 22.5725 4.783 32.1394 7.7733 32.3945 11.0215 Z" fill="#9c4530"/>
					<path d="M 32.0653 11.7424 C 32.0653 11.7424 32.78 10.9144 33.0334 11.5949 C 33.502 12.8521 31.8364 14.2465 31.7637 14.4968 C 31.692 14.7471 32.0653 11.7424 32.0653 11.7424 Z" fill="#fdd3ae"/>
					<path d="M 19.4447 11.7424 C 19.4447 11.7424 18.7301 10.9144 18.4766 11.5949 C 18.0081 12.8521 19.6736 14.2465 19.7463 14.4968 C 19.8181 14.7471 19.4447 11.7424 19.4447 11.7424 Z" fill="#fdd3ae"/>
				</g>
				<path d="M 43.3374 66.4545 C 43.3374 64.8755 41.9462 58.3823 41.0483 55.7621 C 40.7444 55.0779 40.594 54.7391 40.4875 54.2271 C 38.4524 48.5223 39.3525 43.8058 39.6663 43.1281 C 41.4133 39.3524 39.3916 36.2029 38.3365 34.2311 C 37.2816 32.2592 39.0151 25.7236 39.0151 25.7236 C 38.1511 25.4529 36.1633 24.9821 36.061 24.9687 C 32.4497 35.436 26.9294 36.1634 25.7551 36.1136 L 25.7549 36.1136 C 24.5806 36.1634 19.0605 35.436 15.4489 24.9687 C 15.3467 24.9821 13.359 25.4529 12.4949 25.7236 C 12.4949 25.7236 14.2285 32.2592 13.1735 34.2311 C 12.1185 36.2029 10.0967 39.3524 11.8439 43.1281 C 12.1575 43.8058 13.0575 48.5223 11.0227 54.2271 C 10.9161 54.7391 10.7656 55.0779 10.4615 55.7621 C 9.564 58.3823 8.1725 64.8755 8.1725 66.4545 C 8.7355 66.6346 12.4841 67.9647 16.6443 70.7662 C 20.8038 73.5673 24.1379 75.5933 25.75 75.6014 L 25.75 75.6021 C 25.7515 75.6021 25.7535 75.6017 25.755 75.6017 C 25.7566 75.6017 25.7585 75.6021 25.76 75.6021 L 25.76 75.6014 C 27.3722 75.5933 30.7061 73.5673 34.866 70.7662 C 39.026 67.9647 42.7747 66.6346 43.3374 66.4545 Z" fill="#689f38"/>
				<path opacity="0.098" d="M 39.6663 43.1281 C 39.717 43.0183 39.7639 42.9091 39.8086 42.8002 C 39.8285 42.6754 39.8473 42.5463 39.8682 42.423 C 39.8682 42.423 39.9153 42.3746 39.9948 42.2917 C 41.1138 38.8881 39.3127 36.0554 38.3365 34.2311 C 39.3706 36.8148 40.7377 40.7471 36.9578 41.7919 C 32.301 43.0792 29.51 41.3428 25.7855 41.2772 L 25.7246 41.2772 C 22 41.3428 19.2092 43.0792 14.5522 41.7919 C 10.7723 40.7471 12.1394 36.8148 13.1735 34.2311 C 12.1975 36.0554 10.3962 38.8881 11.5153 42.2917 C 11.5947 42.3746 11.6421 42.423 11.6421 42.423 C 11.6626 42.5463 11.6814 42.6754 11.7014 42.8002 C 11.7461 42.9091 11.793 43.0183 11.8439 43.1281 C 12.1575 43.8058 13.0575 48.5223 11.0227 54.2271 C 13.9203 49.3927 12.1394 45.6822 14.782 45.6822 C 18.241 45.6822 20.4122 43.451 25.7549 43.0909 L 25.7551 43.0909 C 31.0979 43.451 33.269 45.6822 36.7283 45.6822 C 39.3706 45.6822 37.59 49.3927 40.4875 54.2271 C 38.4524 48.5223 39.3525 43.8058 39.6663 43.1281 Z" fill="#221e1f"/>
			</g>
		</g>
	</g>
</svg>